<svg width="25" height="25" viewBox="0 0 25 25" fill="none" xmlns="http://www.w3.org/2000/svg">
<path d="M22.1637 3.23767C22.0475 3.13733 21.9061 3.0706 21.7548 3.04466C21.6034 3.01872 21.4479 3.03457 21.3049 3.09048L2.30554 10.5258C2.03628 10.6305 1.80832 10.8198 1.65597 11.0653C1.50363 11.3108 1.43515 11.5991 1.46085 11.8869C1.48655 12.1746 1.60503 12.4463 1.79846 12.6609C1.99189 12.8754 2.2498 13.0214 2.53336 13.0767L7.45617 14.0433V19.5324C7.4552 19.8313 7.54405 20.1237 7.71121 20.3716C7.87837 20.6195 8.11612 20.8115 8.39367 20.9227C8.67079 21.0358 8.97554 21.063 9.2683 21.0006C9.56106 20.9383 9.82829 20.7893 10.0352 20.573L12.409 18.1111L16.1749 21.4074C16.4466 21.6484 16.797 21.7817 17.1602 21.7824C17.3194 21.7822 17.4775 21.7572 17.629 21.7083C17.8764 21.6298 18.099 21.4878 18.2745 21.2965C18.45 21.1052 18.5723 20.8713 18.6293 20.618L22.4346 4.06361C22.4686 3.91431 22.4614 3.75857 22.4137 3.61307C22.366 3.46757 22.2795 3.3378 22.1637 3.23767ZM16.4318 6.61267L8.03273 12.6277L3.38273 11.7155L16.4318 6.61267ZM8.95617 19.5324V15.0811L11.2802 17.1192L8.95617 19.5324ZM17.1621 20.2824L9.41086 13.4855L20.5671 5.48955L17.1621 20.2824Z" fill="white"/>
</svg>
