<svg width="25" height="25" viewBox="0 0 25 25" fill="none" xmlns="http://www.w3.org/2000/svg">
<path d="M20.7075 20.5775L14.8387 11.3544L20.6297 4.98411C20.7606 4.83648 20.8281 4.64317 20.8175 4.4461C20.8069 4.24903 20.7191 4.06408 20.573 3.93135C20.427 3.79862 20.2345 3.72881 20.0373 3.73704C19.8401 3.74528 19.6541 3.83091 19.5197 3.97536L14.0034 10.0429L10.2075 4.07755C10.1398 3.97101 10.0463 3.88327 9.93567 3.82247C9.82505 3.76167 9.70088 3.72978 9.57465 3.72974H5.07465C4.94018 3.72967 4.80816 3.76576 4.69242 3.83423C4.57668 3.9027 4.48148 4.00102 4.41679 4.11891C4.35209 4.2368 4.32028 4.36992 4.32469 4.50432C4.3291 4.63872 4.36956 4.76946 4.44184 4.88286L10.3106 14.105L4.51965 20.48C4.45203 20.5527 4.39949 20.638 4.36509 20.7311C4.33069 20.8242 4.31511 20.9232 4.31926 21.0224C4.3234 21.1215 4.34718 21.2189 4.38923 21.3088C4.43127 21.3987 4.49074 21.4794 4.56419 21.5461C4.63764 21.6129 4.72361 21.6644 4.81711 21.6977C4.91061 21.7309 5.00979 21.7453 5.10889 21.74C5.208 21.7347 5.30506 21.7097 5.39445 21.6666C5.48384 21.6235 5.56379 21.563 5.62965 21.4888L11.1459 15.4213L14.9418 21.3866C15.0101 21.4923 15.1038 21.5791 15.2144 21.6391C15.325 21.699 15.4489 21.7302 15.5747 21.7297H20.0747C20.209 21.7297 20.3408 21.6936 20.4564 21.6252C20.572 21.5567 20.6671 21.4585 20.7318 21.3408C20.7965 21.223 20.8283 21.0901 20.824 20.9558C20.8198 20.8216 20.7795 20.6909 20.7075 20.5775ZM15.9862 20.2297L6.44059 5.22974H9.15934L18.7087 20.2297H15.9862Z" fill="white"/>
</svg>
