<svg width="486" height="210" viewBox="0 0 486 210" fill="none" xmlns="http://www.w3.org/2000/svg">
<path d="M232 0H48C21.4903 0 0 21.4903 0 48V162C0 188.51 21.4903 210 48 210H232C258.51 210 280 188.51 280 162V48C280 21.4903 258.51 0 232 0Z" fill="#8BC34A"/>
<path d="M481.61 89.31L419.73 12.3C410.12 0.339996 391.9 0.349997 382.3 12.32L320.56 89.32C311.11 101.1 319.5 118.58 334.6 118.58H355.85V185.99C355.85 199.24 366.6 209.99 379.85 209.99H422.37C435.62 209.99 446.37 199.24 446.37 185.99V118.58H467.57C482.68 118.58 491.07 101.08 481.6 89.3L481.61 89.31Z" fill="#8BC34A"/>
<path d="M98 121.51V120.49C98 114.41 95.45 108.92 91.37 105C95.45 101.09 98 95.6 98 89.51V88.49C98 76.64 88.36 67 76.51 67H65.89C56.58 67 49 74.58 49 83.89V126.11C49 135.42 56.58 143 65.89 143H76.51C88.36 143 98 133.36 98 121.51ZM86 121.51C86 126.74 81.74 131 76.51 131H65.89C63.19 131 61 128.81 61 126.11V111H76.51C81.74 111 86 115.26 86 120.49V121.51ZM86 89.51C86 94.74 81.74 99 76.51 99H61V83.89C61 81.19 63.19 79 65.89 79H76.51C81.74 79 86 83.26 86 88.49V89.51ZM165 117.5V73C165 69.69 162.31 67 159 67C155.69 67 153 69.69 153 73V117.5C153 124.39 147.39 130 140.5 130C133.61 130 128 124.39 128 117.5V73C128 69.69 125.31 67 122 67C118.69 67 116 69.69 116 73V117.5C116 131.01 126.99 142 140.5 142C154.01 142 165 131.01 165 117.5ZM212 137V107.61L229.77 76.98C231.43 74.11 230.46 70.44 227.59 68.78C224.72 67.12 221.05 68.09 219.39 70.96L206 94.04L192.6 70.96C190.94 68.09 187.27 67.12 184.4 68.78C181.53 70.44 180.56 74.11 182.22 76.98L200 107.61V136.99C200 140.3 202.68 142.99 206 142.99C209.31 142.99 212 140.3 212 136.99V137Z" fill="white"/>
</svg>
