<svg width="25" height="25" viewBox="0 0 25 25" fill="none" xmlns="http://www.w3.org/2000/svg">
<path d="M19.7736 13.6481C19.5536 13.6481 19.3236 13.5781 19.1036 13.5281C18.6581 13.4299 18.2203 13.2996 17.7936 13.1381C17.3297 12.9694 16.8197 12.9781 16.3619 13.1627C15.9041 13.3473 15.5307 13.6948 15.3136 14.1381L15.0936 14.5881C14.1196 14.0463 13.2246 13.3734 12.4336 12.5881C11.6484 11.7971 10.9754 10.9021 10.4336 9.92812L10.8536 9.64812C11.297 9.43104 11.6444 9.05765 11.829 8.59981C12.0136 8.14197 12.0224 7.63203 11.8536 7.16812C11.6948 6.74054 11.5645 6.30292 11.4636 5.85812C11.4136 5.63812 11.3736 5.40812 11.3436 5.17812C11.2222 4.47374 10.8532 3.83586 10.3032 3.37936C9.75322 2.92286 9.05829 2.67773 8.3436 2.68812H5.3436C4.91263 2.68408 4.48585 2.77294 4.09231 2.94865C3.69877 3.12437 3.34771 3.38282 3.06303 3.7064C2.77835 4.02999 2.56673 4.41112 2.44258 4.82384C2.31844 5.23656 2.28468 5.67118 2.3436 6.09812C2.87634 10.2875 4.78963 14.18 7.78125 17.1608C10.7729 20.1415 14.6723 22.0406 18.8636 22.5581H19.2436C19.981 22.5592 20.693 22.2887 21.2436 21.7981C21.56 21.5152 21.8127 21.1683 21.9851 20.7804C22.1574 20.3926 22.2456 19.9726 22.2436 19.5481V16.5481C22.2313 15.8535 21.9784 15.1847 21.5279 14.6558C21.0775 14.1269 20.4574 13.7707 19.7736 13.6481ZM20.2736 19.6481C20.2734 19.7901 20.243 19.9304 20.1844 20.0597C20.1258 20.1891 20.0403 20.3044 19.9336 20.3981C19.8219 20.4946 19.6912 20.5667 19.55 20.6097C19.4088 20.6528 19.2602 20.6658 19.1136 20.6481C15.3685 20.1679 11.8898 18.4546 9.22631 15.7784C6.56279 13.1022 4.86601 9.61546 4.4036 5.86812C4.38768 5.72164 4.40163 5.57345 4.4446 5.43251C4.48757 5.29157 4.55867 5.16081 4.6536 5.04812C4.74731 4.94145 4.86266 4.85596 4.99198 4.79734C5.12129 4.73872 5.26161 4.7083 5.4036 4.70812H8.4036C8.63614 4.70295 8.86322 4.779 9.04574 4.92319C9.22826 5.06738 9.35481 5.27069 9.4036 5.49812C9.4436 5.77146 9.4936 6.04146 9.5536 6.30812C9.66912 6.83527 9.82286 7.3533 10.0136 7.85812L8.6136 8.50812C8.49389 8.56304 8.38622 8.64107 8.29675 8.73772C8.20729 8.83437 8.1378 8.94774 8.09227 9.07132C8.04674 9.1949 8.02607 9.32625 8.03144 9.45784C8.03682 9.58944 8.06814 9.71867 8.1236 9.83812C9.5628 12.9209 12.0408 15.3989 15.1236 16.8381C15.3671 16.9381 15.6401 16.9381 15.8836 16.8381C16.0083 16.7935 16.1229 16.7246 16.2208 16.6353C16.3186 16.546 16.3978 16.4382 16.4536 16.3181L17.0736 14.9181C17.5906 15.103 18.1182 15.2566 18.6536 15.3781C18.9203 15.4381 19.1903 15.4881 19.4636 15.5281C19.691 15.5769 19.8943 15.7035 20.0385 15.886C20.1827 16.0685 20.2588 16.2956 20.2536 16.5281L20.2736 19.6481Z" fill="white" fill-opacity="0.7"/>
</svg>
