<svg xmlns="http://www.w3.org/2000/svg" xml:space="preserve" enable-background="new 0 0 100 100" version="1.0" viewBox="0 0 100 100" id="candlestick-chart-down">
  <g id="candlestick-chart-down">
    <path fill="white" d="M84.156,37.5h-0.822v-4.167c0-2.301-1.864-4.167-4.167-4.167c-2.303,0-4.167,1.866-4.167,4.167V37.5h-0.822
		c-4.142,0-7.511,3.369-7.511,7.511v22.478c0,4.142,3.369,7.511,7.511,7.511H75v4.167c0,2.303,1.864,4.167,4.167,4.167
		c2.303,0,4.167-1.864,4.167-4.167V75h0.822c4.142,0,7.511-3.369,7.511-7.511V45.011C91.667,40.869,88.297,37.5,84.156,37.5z
		 M87.5,67.489c0,1.847-1.497,3.344-3.344,3.344h-9.978c-1.847,0-3.344-1.497-3.344-3.344V45.011c0-1.847,1.497-3.344,3.344-3.344
		h9.978c1.847,0,3.344,1.497,3.344,3.344V67.489z M25.822,25H25v-4.167c0-2.301-1.866-4.167-4.167-4.167s-4.167,1.866-4.167,4.167
		V25h-0.822c-4.142,0-7.511,3.369-7.511,7.511v22.478c0,4.142,3.369,7.511,7.511,7.511h0.822v4.167c0,2.303,1.866,4.167,4.167,4.167
		S25,68.97,25,66.667V62.5h0.822c4.142,0,7.511-3.369,7.511-7.511V32.511C33.333,28.369,29.964,25,25.822,25z M29.167,54.989
		c0,1.847-1.497,3.344-3.344,3.344h-9.978c-1.847,0-3.344-1.497-3.344-3.344V32.511c0-1.847,1.497-3.344,3.344-3.344h9.978
		c1.847,0,3.344,1.497,3.344,3.344V54.989z M55.039,33.333h-0.873v-4.167C54.167,26.866,52.301,25,50,25s-4.167,1.866-4.167,4.167
		v4.167h-0.873c-4.114,0-7.461,3.347-7.461,7.461v22.579c0,4.114,3.347,7.461,7.461,7.461h0.873V75c0,2.303,1.866,4.167,4.167,4.167
		s4.167-1.864,4.167-4.167v-4.167h0.873c4.114,0,7.461-3.347,7.461-7.461V40.794C62.5,36.68,59.153,33.333,55.039,33.333z
		 M58.333,63.373c0,1.819-1.475,3.294-3.294,3.294H44.961c-1.819,0-3.294-1.475-3.294-3.294V40.794c0-1.819,1.475-3.294,3.294-3.294
		h10.078c1.819,0,3.294,1.475,3.294,3.294V63.373z"></path>
  </g>
</svg>