<svg width="12" height="7" viewBox="0 0 12 7" fill="none" xmlns="http://www.w3.org/2000/svg">
<path d="M11.0002 0.818136C10.8128 0.631885 10.5594 0.527344 10.2952 0.527344C10.031 0.527344 9.77756 0.631885 9.59019 0.818136L6.00019 4.35814L2.46019 0.818136C2.27283 0.631885 2.01938 0.527344 1.75519 0.527344C1.49101 0.527344 1.23756 0.631885 1.05019 0.818136C0.956464 0.911099 0.88207 1.0217 0.831301 1.14356C0.780533 1.26542 0.754395 1.39612 0.754395 1.52814C0.754395 1.66015 0.780533 1.79085 0.831301 1.91271C0.88207 2.03457 0.956464 2.14517 1.05019 2.23814L5.29019 6.47814C5.38316 6.57186 5.49376 6.64626 5.61562 6.69703C5.73747 6.7478 5.86818 6.77393 6.00019 6.77393C6.1322 6.77393 6.26291 6.7478 6.38477 6.69703C6.50663 6.64626 6.61723 6.57186 6.71019 6.47814L11.0002 2.23814C11.0939 2.14517 11.1683 2.03457 11.2191 1.91271C11.2699 1.79085 11.296 1.66015 11.296 1.52814C11.296 1.39612 11.2699 1.26542 11.2191 1.14356C11.1683 1.0217 11.0939 0.911099 11.0002 0.818136Z" fill="white" fill-opacity="0.7"/>
</svg>
