<svg width="564" height="511" viewBox="0 0 564 511" fill="none" xmlns="http://www.w3.org/2000/svg">
<rect x="1" y="1" width="562" height="509" rx="12" stroke="#292828"/>
<rect x="15" y="15" width="534" height="481" rx="12" stroke="#292828"/>
<g clip-path="url(#clip0_1209_9752)">
<rect x="89.1782" y="113" width="385.644" height="285" rx="22.5743" fill="url(#paint0_linear_1209_9752)"/>
<path d="M120.624 155.212V151.473H140.272V155.212H132.661V176.099H128.236V155.212H120.624ZM141.95 176.099V157.629H146.17V160.708H146.363C146.699 159.641 147.277 158.82 148.094 158.243C148.92 157.657 149.862 157.365 150.92 157.365C151.161 157.365 151.429 157.377 151.726 157.401C152.03 157.417 152.283 157.445 152.483 157.485V161.489C152.299 161.425 152.006 161.369 151.605 161.321C151.213 161.265 150.832 161.237 150.463 161.237C149.669 161.237 148.956 161.409 148.323 161.754C147.697 162.09 147.204 162.559 146.844 163.161C146.483 163.762 146.303 164.455 146.303 165.241V176.099H141.95ZM160.359 176.472C159.189 176.472 158.135 176.263 157.197 175.847C156.267 175.422 155.53 174.796 154.984 173.971C154.447 173.145 154.179 172.127 154.179 170.917C154.179 169.874 154.371 169.013 154.756 168.331C155.141 167.65 155.666 167.105 156.331 166.696C156.997 166.287 157.746 165.978 158.58 165.77C159.421 165.554 160.291 165.397 161.189 165.301C162.271 165.189 163.149 165.089 163.823 165C164.496 164.904 164.985 164.76 165.29 164.567C165.602 164.367 165.758 164.058 165.758 163.642V163.569C165.758 162.664 165.49 161.962 164.953 161.465C164.416 160.968 163.642 160.72 162.632 160.72C161.566 160.72 160.72 160.952 160.095 161.417C159.478 161.882 159.061 162.431 158.844 163.064L154.78 162.487C155.101 161.365 155.63 160.427 156.367 159.673C157.105 158.912 158.007 158.343 159.073 157.966C160.139 157.581 161.317 157.389 162.608 157.389C163.498 157.389 164.384 157.493 165.265 157.701C166.147 157.91 166.953 158.255 167.682 158.736C168.412 159.209 168.997 159.854 169.438 160.672C169.887 161.489 170.111 162.511 170.111 163.738V176.099H165.927V173.562H165.783C165.518 174.075 165.145 174.556 164.664 175.005C164.191 175.446 163.594 175.803 162.873 176.075C162.159 176.34 161.321 176.472 160.359 176.472ZM161.49 173.273C162.364 173.273 163.121 173.101 163.762 172.756C164.404 172.404 164.897 171.939 165.241 171.361C165.594 170.784 165.77 170.155 165.77 169.474V167.297C165.634 167.409 165.402 167.514 165.073 167.61C164.752 167.706 164.392 167.79 163.991 167.862C163.59 167.934 163.193 167.999 162.8 168.055C162.408 168.111 162.067 168.159 161.778 168.199C161.129 168.287 160.548 168.431 160.035 168.632C159.522 168.832 159.117 169.113 158.82 169.474C158.524 169.826 158.375 170.283 158.375 170.844C158.375 171.646 158.668 172.251 159.253 172.66C159.838 173.069 160.584 173.273 161.49 173.273ZM181.342 176.424C179.891 176.424 178.593 176.051 177.446 175.305C176.3 174.56 175.394 173.478 174.729 172.059C174.063 170.64 173.731 168.916 173.731 166.888C173.731 164.836 174.067 163.104 174.741 161.694C175.422 160.275 176.34 159.205 177.495 158.483C178.649 157.754 179.936 157.389 181.354 157.389C182.437 157.389 183.326 157.573 184.024 157.942C184.721 158.303 185.274 158.74 185.683 159.253C186.092 159.758 186.409 160.235 186.633 160.684H186.814V151.473H191.179V176.099H186.898V173.189H186.633C186.409 173.638 186.084 174.115 185.659 174.62C185.234 175.117 184.673 175.542 183.976 175.895C183.278 176.247 182.401 176.424 181.342 176.424ZM182.557 172.852C183.479 172.852 184.264 172.604 184.914 172.107C185.563 171.602 186.056 170.9 186.393 170.003C186.729 169.105 186.898 168.059 186.898 166.864C186.898 165.67 186.729 164.632 186.393 163.75C186.064 162.868 185.575 162.183 184.926 161.694C184.284 161.205 183.495 160.96 182.557 160.96C181.587 160.96 180.777 161.213 180.128 161.718C179.479 162.223 178.99 162.92 178.661 163.81C178.332 164.7 178.168 165.718 178.168 166.864C178.168 168.019 178.332 169.049 178.661 169.955C178.998 170.852 179.491 171.562 180.14 172.083C180.797 172.596 181.603 172.852 182.557 172.852ZM203.994 176.46C202.142 176.46 200.543 176.075 199.196 175.305C197.857 174.528 196.827 173.43 196.106 172.011C195.384 170.584 195.023 168.904 195.023 166.972C195.023 165.073 195.384 163.405 196.106 161.97C196.835 160.527 197.853 159.405 199.16 158.603C200.467 157.794 202.002 157.389 203.765 157.389C204.904 157.389 205.978 157.573 206.988 157.942C208.006 158.303 208.904 158.864 209.681 159.625C210.467 160.387 211.084 161.357 211.533 162.535C211.982 163.706 212.207 165.101 212.207 166.72V168.055H197.068V165.121H208.034C208.026 164.287 207.846 163.545 207.493 162.896C207.14 162.239 206.647 161.722 206.014 161.345C205.389 160.968 204.659 160.78 203.825 160.78C202.936 160.78 202.154 160.996 201.481 161.429C200.807 161.854 200.282 162.415 199.905 163.113C199.537 163.802 199.348 164.559 199.34 165.385V167.946C199.34 169.021 199.537 169.943 199.929 170.712C200.322 171.474 200.871 172.059 201.577 172.468C202.282 172.869 203.108 173.069 204.054 173.069C204.687 173.069 205.26 172.981 205.773 172.804C206.287 172.62 206.731 172.351 207.108 171.999C207.485 171.646 207.77 171.209 207.962 170.688L212.026 171.145C211.77 172.219 211.281 173.157 210.559 173.959C209.846 174.752 208.932 175.37 207.818 175.811C206.703 176.243 205.429 176.46 203.994 176.46ZM245.56 159.782H241.063C240.935 159.044 240.698 158.391 240.353 157.822C240.009 157.244 239.58 156.755 239.067 156.355C238.554 155.954 237.968 155.653 237.311 155.453C236.662 155.244 235.96 155.14 235.207 155.14C233.868 155.14 232.682 155.477 231.647 156.15C230.613 156.816 229.804 157.794 229.219 159.084C228.633 160.367 228.341 161.934 228.341 163.786C228.341 165.67 228.633 167.257 229.219 168.548C229.812 169.83 230.621 170.8 231.647 171.458C232.682 172.107 233.864 172.432 235.195 172.432C235.932 172.432 236.622 172.335 237.263 172.143C237.912 171.943 238.494 171.65 239.007 171.265C239.528 170.88 239.965 170.407 240.317 169.846C240.678 169.285 240.926 168.644 241.063 167.922L245.56 167.946C245.392 169.117 245.027 170.215 244.466 171.241C243.913 172.267 243.187 173.173 242.289 173.959C241.391 174.736 240.341 175.346 239.139 175.786C237.936 176.219 236.602 176.436 235.135 176.436C232.97 176.436 231.038 175.935 229.339 174.933C227.639 173.931 226.301 172.484 225.323 170.592C224.345 168.7 223.856 166.431 223.856 163.786C223.856 161.132 224.349 158.864 225.335 156.98C226.321 155.088 227.663 153.641 229.363 152.639C231.062 151.637 232.986 151.136 235.135 151.136C236.505 151.136 237.78 151.328 238.958 151.713C240.137 152.098 241.187 152.663 242.109 153.409C243.031 154.146 243.788 155.052 244.382 156.126C244.983 157.192 245.376 158.411 245.56 159.782ZM257.509 176.46C255.706 176.46 254.143 176.063 252.82 175.269C251.497 174.476 250.471 173.366 249.742 171.939C249.02 170.512 248.659 168.844 248.659 166.936C248.659 165.028 249.02 163.357 249.742 161.922C250.471 160.487 251.497 159.373 252.82 158.579C254.143 157.786 255.706 157.389 257.509 157.389C259.313 157.389 260.876 157.786 262.199 158.579C263.522 159.373 264.544 160.487 265.265 161.922C265.995 163.357 266.36 165.028 266.36 166.936C266.36 168.844 265.995 170.512 265.265 171.939C264.544 173.366 263.522 174.476 262.199 175.269C260.876 176.063 259.313 176.46 257.509 176.46ZM257.534 172.973C258.512 172.973 259.329 172.704 259.987 172.167C260.644 171.622 261.133 170.892 261.454 169.979C261.782 169.065 261.947 168.047 261.947 166.924C261.947 165.794 261.782 164.772 261.454 163.858C261.133 162.936 260.644 162.203 259.987 161.658C259.329 161.112 258.512 160.84 257.534 160.84C256.531 160.84 255.698 161.112 255.032 161.658C254.375 162.203 253.882 162.936 253.553 163.858C253.233 164.772 253.072 165.794 253.072 166.924C253.072 168.047 253.233 169.065 253.553 169.979C253.882 170.892 254.375 171.622 255.032 172.167C255.698 172.704 256.531 172.973 257.534 172.973ZM274.407 165.277V176.099H270.054V157.629H274.215V160.768H274.431C274.856 159.734 275.533 158.912 276.463 158.303C277.401 157.693 278.56 157.389 279.938 157.389C281.213 157.389 282.323 157.661 283.269 158.206C284.223 158.752 284.961 159.541 285.482 160.575C286.011 161.609 286.271 162.864 286.263 164.339V176.099H281.91V165.012C281.91 163.778 281.59 162.812 280.949 162.114C280.315 161.417 279.437 161.068 278.315 161.068C277.554 161.068 276.876 161.237 276.283 161.573C275.698 161.902 275.237 162.379 274.9 163.004C274.571 163.63 274.407 164.387 274.407 165.277ZM300.044 157.629V160.996H289.125V157.629H300.044ZM291.855 176.099V155.886C291.855 154.643 292.111 153.609 292.624 152.783C293.145 151.958 293.843 151.34 294.717 150.932C295.591 150.523 296.56 150.318 297.627 150.318C298.38 150.318 299.05 150.378 299.635 150.499C300.22 150.619 300.653 150.727 300.933 150.823L300.068 154.19C299.883 154.134 299.651 154.078 299.37 154.022C299.09 153.958 298.777 153.926 298.432 153.926C297.623 153.926 297.049 154.122 296.713 154.515C296.384 154.9 296.22 155.453 296.22 156.174V176.099H291.855ZM303.453 176.099V157.629H307.806V176.099H303.453ZM305.641 155.008C304.952 155.008 304.358 154.779 303.861 154.322C303.364 153.858 303.116 153.3 303.116 152.651C303.116 151.994 303.364 151.437 303.861 150.98C304.358 150.515 304.952 150.282 305.641 150.282C306.339 150.282 306.932 150.515 307.421 150.98C307.918 151.437 308.166 151.994 308.166 152.651C308.166 153.3 307.918 153.858 307.421 154.322C306.932 154.779 306.339 155.008 305.641 155.008ZM319.136 176.424C317.685 176.424 316.386 176.051 315.24 175.305C314.093 174.56 313.188 173.478 312.522 172.059C311.857 170.64 311.524 168.916 311.524 166.888C311.524 164.836 311.861 163.104 312.534 161.694C313.216 160.275 314.133 159.205 315.288 158.483C316.442 157.754 317.729 157.389 319.148 157.389C320.23 157.389 321.12 157.573 321.817 157.942C322.515 158.303 323.068 158.74 323.477 159.253C323.885 159.758 324.202 160.235 324.427 160.684H324.607V151.473H328.972V176.099H324.691V173.189H324.427C324.202 173.638 323.877 174.115 323.453 174.62C323.028 175.117 322.467 175.542 321.769 175.895C321.072 176.247 320.194 176.424 319.136 176.424ZM320.35 172.852C321.272 172.852 322.058 172.604 322.707 172.107C323.356 171.602 323.849 170.9 324.186 170.003C324.523 169.105 324.691 168.059 324.691 166.864C324.691 165.67 324.523 164.632 324.186 163.75C323.857 162.868 323.368 162.183 322.719 161.694C322.078 161.205 321.288 160.96 320.35 160.96C319.38 160.96 318.571 161.213 317.921 161.718C317.272 162.223 316.783 162.92 316.454 163.81C316.126 164.7 315.961 165.718 315.961 166.864C315.961 168.019 316.126 169.049 316.454 169.955C316.791 170.852 317.284 171.562 317.933 172.083C318.591 172.596 319.396 172.852 320.35 172.852ZM341.787 176.46C339.935 176.46 338.336 176.075 336.989 175.305C335.651 174.528 334.62 173.43 333.899 172.011C333.178 170.584 332.817 168.904 332.817 166.972C332.817 165.073 333.178 163.405 333.899 161.97C334.628 160.527 335.647 159.405 336.953 158.603C338.26 157.794 339.795 157.389 341.559 157.389C342.697 157.389 343.771 157.573 344.781 157.942C345.799 158.303 346.697 158.864 347.475 159.625C348.26 160.387 348.878 161.357 349.327 162.535C349.776 163.706 350 165.101 350 166.72V168.055H334.861V165.121H345.827C345.819 164.287 345.639 163.545 345.286 162.896C344.934 162.239 344.441 161.722 343.807 161.345C343.182 160.968 342.453 160.78 341.619 160.78C340.729 160.78 339.947 160.996 339.274 161.429C338.601 161.854 338.076 162.415 337.699 163.113C337.33 163.802 337.142 164.559 337.134 165.385V167.946C337.134 169.021 337.33 169.943 337.723 170.712C338.116 171.474 338.665 172.059 339.37 172.468C340.076 172.869 340.901 173.069 341.847 173.069C342.481 173.069 343.054 172.981 343.567 172.804C344.08 172.62 344.525 172.351 344.902 171.999C345.278 171.646 345.563 171.209 345.755 170.688L349.82 171.145C349.563 172.219 349.074 173.157 348.353 173.959C347.639 174.752 346.725 175.37 345.611 175.811C344.497 176.243 343.222 176.46 341.787 176.46ZM358.035 165.277V176.099H353.683V157.629H357.843V160.768H358.06C358.484 159.734 359.162 158.912 360.092 158.303C361.03 157.693 362.188 157.389 363.567 157.389C364.841 157.389 365.952 157.661 366.898 158.206C367.852 158.752 368.589 159.541 369.11 160.575C369.639 161.609 369.9 162.864 369.892 164.339V176.099H365.539V165.012C365.539 163.778 365.218 162.812 364.577 162.114C363.944 161.417 363.066 161.068 361.943 161.068C361.182 161.068 360.505 161.237 359.911 161.573C359.326 161.902 358.865 162.379 358.528 163.004C358.2 163.63 358.035 164.387 358.035 165.277ZM382.373 176.46C380.53 176.46 378.946 176.055 377.624 175.245C376.309 174.436 375.295 173.317 374.581 171.89C373.876 170.456 373.523 168.804 373.523 166.936C373.523 165.061 373.884 163.405 374.605 161.97C375.327 160.527 376.345 159.405 377.66 158.603C378.982 157.794 380.546 157.389 382.349 157.389C383.848 157.389 385.175 157.665 386.329 158.218C387.492 158.764 388.418 159.537 389.107 160.539C389.797 161.533 390.189 162.696 390.286 164.026H386.125C385.957 163.137 385.556 162.395 384.923 161.802C384.297 161.201 383.46 160.9 382.409 160.9C381.52 160.9 380.738 161.14 380.065 161.621C379.391 162.094 378.866 162.776 378.489 163.666C378.121 164.555 377.936 165.622 377.936 166.864C377.936 168.123 378.121 169.205 378.489 170.111C378.858 171.009 379.375 171.702 380.041 172.191C380.714 172.672 381.504 172.913 382.409 172.913C383.051 172.913 383.624 172.792 384.129 172.552C384.642 172.303 385.071 171.947 385.416 171.482C385.76 171.017 385.997 170.452 386.125 169.786H390.286C390.181 171.093 389.797 172.251 389.131 173.261C388.466 174.263 387.56 175.049 386.414 175.618C385.267 176.179 383.921 176.46 382.373 176.46ZM402.037 176.46C400.185 176.46 398.586 176.075 397.239 175.305C395.9 174.528 394.87 173.43 394.148 172.011C393.427 170.584 393.066 168.904 393.066 166.972C393.066 165.073 393.427 163.405 394.148 161.97C394.878 160.527 395.896 159.405 397.203 158.603C398.509 157.794 400.045 157.389 401.808 157.389C402.946 157.389 404.021 157.573 405.031 157.942C406.049 158.303 406.947 158.864 407.724 159.625C408.51 160.387 409.127 161.357 409.576 162.535C410.025 163.706 410.249 165.101 410.249 166.72V168.055H395.11V165.121H406.077C406.069 164.287 405.889 163.545 405.536 162.896C405.183 162.239 404.69 161.722 404.057 161.345C403.431 160.968 402.702 160.78 401.868 160.78C400.978 160.78 400.197 160.996 399.523 161.429C398.85 161.854 398.325 162.415 397.948 163.113C397.579 163.802 397.391 164.559 397.383 165.385V167.946C397.383 169.021 397.579 169.943 397.972 170.712C398.365 171.474 398.914 172.059 399.62 172.468C400.325 172.869 401.151 173.069 402.097 173.069C402.73 173.069 403.303 172.981 403.816 172.804C404.329 172.62 404.774 172.351 405.151 171.999C405.528 171.646 405.812 171.209 406.005 170.688L410.069 171.145C409.813 172.219 409.324 173.157 408.602 173.959C407.889 174.752 406.975 175.37 405.86 175.811C404.746 176.243 403.472 176.46 402.037 176.46Z" fill="white"/>
<mask id="path-6-outside-1_1209_9752" maskUnits="userSpaceOnUse" x="161.426" y="196.148" width="241" height="124" fill="black">
<rect fill="white" x="161.426" y="196.148" width="241" height="124"/>
<path d="M399.574 316.723C399.574 285.54 387.187 255.635 365.138 233.585C343.088 211.536 313.183 199.148 282 199.148C250.817 199.148 220.912 211.536 198.862 233.585C176.813 255.635 164.426 285.54 164.426 316.723L282 316.723H399.574Z"/>
</mask>
<path d="M399.574 316.723C399.574 285.54 387.187 255.635 365.138 233.585C343.088 211.536 313.183 199.148 282 199.148C250.817 199.148 220.912 211.536 198.862 233.585C176.813 255.635 164.426 285.54 164.426 316.723L282 316.723H399.574Z" fill="#FF5656"/>
<path d="M399.574 316.723C399.574 285.54 387.187 255.635 365.138 233.585C343.088 211.536 313.183 199.148 282 199.148C250.817 199.148 220.912 211.536 198.862 233.585C176.813 255.635 164.426 285.54 164.426 316.723L282 316.723H399.574Z" stroke="#3D3D3D" stroke-width="4.86429" stroke-linejoin="round" mask="url(#path-6-outside-1_1209_9752)"/>
<mask id="path-7-outside-2_1209_9752" maskUnits="userSpaceOnUse" x="177.426" y="196.148" width="225" height="124" fill="black">
<rect fill="white" x="177.426" y="196.148" width="225" height="124"/>
<path d="M399.574 316.723C399.574 290.946 391.103 265.884 375.465 245.392C359.827 224.901 337.888 210.117 313.025 203.316C288.162 196.514 261.752 198.071 237.861 207.748C213.969 217.425 193.92 234.685 180.799 256.873L282 316.723H399.574Z"/>
</mask>
<path d="M399.574 316.723C399.574 290.946 391.103 265.884 375.465 245.392C359.827 224.901 337.888 210.117 313.025 203.316C288.162 196.514 261.752 198.071 237.861 207.748C213.969 217.425 193.92 234.685 180.799 256.873L282 316.723H399.574Z" fill="#FF8888"/>
<path d="M399.574 316.723C399.574 290.946 391.103 265.884 375.465 245.392C359.827 224.901 337.888 210.117 313.025 203.316C288.162 196.514 261.752 198.071 237.861 207.748C213.969 217.425 193.92 234.685 180.799 256.873L282 316.723H399.574Z" stroke="#3D3D3D" stroke-width="4.86429" stroke-linejoin="round" mask="url(#path-7-outside-2_1209_9752)"/>
<mask id="path-8-outside-3_1209_9752" maskUnits="userSpaceOnUse" x="220.426" y="196.148" width="182" height="124" fill="black">
<rect fill="white" x="220.426" y="196.148" width="182" height="124"/>
<path d="M399.574 316.723C399.574 296.105 394.153 275.85 383.853 257.989C373.554 240.128 358.738 225.29 340.894 214.962C323.049 204.634 302.802 199.181 282.185 199.149C261.567 199.116 241.303 204.506 223.426 214.777L282 316.723H399.574Z"/>
</mask>
<path d="M399.574 316.723C399.574 296.105 394.153 275.85 383.853 257.989C373.554 240.128 358.738 225.29 340.894 214.962C323.049 204.634 302.802 199.181 282.185 199.149C261.567 199.116 241.303 204.506 223.426 214.777L282 316.723H399.574Z" fill="#FEE114"/>
<path d="M399.574 316.723C399.574 296.105 394.153 275.85 383.853 257.989C373.554 240.128 358.738 225.29 340.894 214.962C323.049 204.634 302.802 199.181 282.185 199.149C261.567 199.116 241.303 204.506 223.426 214.777L282 316.723H399.574Z" stroke="#3D3D3D" stroke-width="4.86429" stroke-linejoin="round" mask="url(#path-8-outside-3_1209_9752)"/>
<mask id="path-9-outside-4_1209_9752" maskUnits="userSpaceOnUse" x="279.426" y="196.148" width="123" height="124" fill="black">
<rect fill="white" x="279.426" y="196.148" width="123" height="124"/>
<path d="M399.574 316.723C399.574 285.668 387.288 255.875 365.398 233.847C343.508 211.819 313.793 199.346 282.739 199.151L282 316.723H399.574Z"/>
</mask>
<path d="M399.574 316.723C399.574 285.668 387.288 255.875 365.398 233.847C343.508 211.819 313.793 199.346 282.739 199.151L282 316.723H399.574Z" fill="#D1D80F"/>
<path d="M399.574 316.723C399.574 285.668 387.288 255.875 365.398 233.847C343.508 211.819 313.793 199.346 282.739 199.151L282 316.723H399.574Z" stroke="#3D3D3D" stroke-width="4.86429" stroke-linejoin="round" mask="url(#path-9-outside-4_1209_9752)"/>
<mask id="path-10-outside-5_1209_9752" maskUnits="userSpaceOnUse" x="279.426" y="212.148" width="123" height="108" fill="black">
<rect fill="white" x="279.426" y="212.148" width="123" height="108"/>
<path d="M399.574 316.723C399.574 296.168 394.185 275.972 383.945 258.149C373.705 240.326 358.971 225.5 341.213 215.148L282 316.723H399.574Z"/>
</mask>
<path d="M399.574 316.723C399.574 296.168 394.185 275.972 383.945 258.149C373.705 240.326 358.971 225.5 341.213 215.148L282 316.723H399.574Z" fill="#84BD32"/>
<path d="M399.574 316.723C399.574 296.168 394.185 275.972 383.945 258.149C373.705 240.326 358.971 225.5 341.213 215.148L282 316.723H399.574Z" stroke="#3D3D3D" stroke-width="4.86429" stroke-linejoin="round" mask="url(#path-10-outside-5_1209_9752)"/>
<mask id="path-11-outside-6_1209_9752" maskUnits="userSpaceOnUse" x="279.426" y="255.148" width="123" height="65" fill="black">
<rect fill="white" x="279.426" y="255.148" width="123" height="65"/>
<path d="M399.574 316.723C399.574 296.168 394.185 275.972 383.945 258.149L282 316.723H399.574Z"/>
</mask>
<path d="M399.574 316.723C399.574 296.168 394.185 275.972 383.945 258.149L282 316.723H399.574Z" fill="#30AD43"/>
<path d="M399.574 316.723C399.574 296.168 394.185 275.972 383.945 258.149L282 316.723H399.574Z" stroke="#3D3D3D" stroke-width="4.86429" stroke-linejoin="round" mask="url(#path-11-outside-6_1209_9752)"/>
<mask id="path-12-inside-7_1209_9752" fill="white">
<path d="M387.638 317.916C387.638 289.899 376.508 263.03 356.697 243.219C336.886 223.408 310.017 212.279 282 212.279C253.983 212.279 227.114 223.408 207.303 243.219C187.492 263.03 176.362 289.899 176.362 317.916L282 317.916H387.638Z"/>
</mask>
<path d="M387.638 317.916C387.638 289.899 376.508 263.03 356.697 243.219C336.886 223.408 310.017 212.279 282 212.279C253.983 212.279 227.114 223.408 207.303 243.219C187.492 263.03 176.362 289.899 176.362 317.916L282 317.916H387.638Z" fill="url(#paint1_linear_1209_9752)" stroke="#3D3D3D" stroke-width="4.86429" mask="url(#path-12-inside-7_1209_9752)"/>
<path d="M364.95 287.561L286.378 321.221L282.637 310.609L364.95 287.561Z" fill="white"/>
<circle cx="281.9" cy="316.822" r="9.6636" fill="white" stroke="#3D3D3D" stroke-width="1.62143"/>
<path d="M222.026 348.984C221.932 348.109 221.538 347.427 220.843 346.94C220.155 346.452 219.26 346.208 218.158 346.208C217.383 346.208 216.718 346.325 216.164 346.559C215.609 346.793 215.185 347.11 214.891 347.511C214.597 347.912 214.447 348.369 214.44 348.884C214.44 349.311 214.537 349.682 214.731 349.996C214.931 350.31 215.202 350.577 215.542 350.797C215.883 351.011 216.26 351.192 216.675 351.339C217.089 351.486 217.506 351.609 217.927 351.709L219.851 352.19C220.626 352.371 221.371 352.615 222.086 352.922C222.807 353.229 223.452 353.617 224.02 354.084C224.594 354.552 225.048 355.116 225.382 355.778C225.717 356.439 225.884 357.214 225.884 358.102C225.884 359.305 225.576 360.364 224.962 361.279C224.347 362.187 223.459 362.899 222.296 363.413C221.14 363.921 219.741 364.175 218.098 364.175C216.501 364.175 215.115 363.928 213.939 363.433C212.77 362.939 211.855 362.218 211.193 361.269C210.539 360.32 210.185 359.165 210.131 357.802H213.789C213.842 358.517 214.063 359.111 214.45 359.585C214.838 360.06 215.342 360.414 215.963 360.648C216.591 360.881 217.293 360.998 218.067 360.998C218.876 360.998 219.584 360.878 220.192 360.638C220.806 360.39 221.287 360.05 221.635 359.616C221.982 359.175 222.159 358.66 222.166 358.072C222.159 357.538 222.002 357.097 221.695 356.75C221.388 356.396 220.957 356.102 220.402 355.868C219.854 355.627 219.213 355.414 218.478 355.227L216.144 354.625C214.453 354.191 213.117 353.533 212.135 352.651C211.16 351.763 210.672 350.584 210.672 349.114C210.672 347.905 211 346.846 211.654 345.938C212.316 345.029 213.214 344.324 214.35 343.823C215.486 343.315 216.772 343.062 218.208 343.062C219.664 343.062 220.94 343.315 222.036 343.823C223.138 344.324 224.003 345.022 224.631 345.917C225.259 346.806 225.583 347.828 225.603 348.984H222.026ZM236.723 348.473V351.278H227.875V348.473H236.723ZM230.06 344.785H233.687V359.235C233.687 359.722 233.76 360.097 233.907 360.357C234.061 360.611 234.262 360.785 234.509 360.878C234.756 360.972 235.03 361.018 235.33 361.018C235.557 361.018 235.765 361.002 235.952 360.968C236.145 360.935 236.292 360.905 236.393 360.878L237.004 363.714C236.81 363.781 236.533 363.854 236.172 363.934C235.818 364.015 235.384 364.061 234.869 364.075C233.961 364.101 233.143 363.964 232.414 363.664C231.686 363.357 231.108 362.882 230.681 362.241C230.26 361.6 230.053 360.798 230.06 359.836V344.785ZM239.757 363.864V348.473H243.274V351.038H243.434C243.715 350.149 244.196 349.465 244.877 348.984C245.566 348.496 246.35 348.252 247.232 348.252C247.433 348.252 247.656 348.262 247.904 348.282C248.157 348.296 248.368 348.319 248.535 348.352V351.689C248.381 351.636 248.137 351.589 247.803 351.549C247.476 351.502 247.159 351.479 246.851 351.479C246.19 351.479 245.596 351.623 245.068 351.91C244.547 352.19 244.136 352.581 243.835 353.082C243.535 353.583 243.384 354.161 243.384 354.816V363.864H239.757ZM257.025 364.165C255.522 364.165 254.219 363.834 253.117 363.173C252.015 362.511 251.159 361.586 250.552 360.397C249.95 359.208 249.65 357.819 249.65 356.229C249.65 354.639 249.95 353.246 250.552 352.05C251.159 350.854 252.015 349.926 253.117 349.264C254.219 348.603 255.522 348.272 257.025 348.272C258.528 348.272 259.831 348.603 260.933 349.264C262.035 349.926 262.887 350.854 263.488 352.05C264.096 353.246 264.4 354.639 264.4 356.229C264.4 357.819 264.096 359.208 263.488 360.397C262.887 361.586 262.035 362.511 260.933 363.173C259.831 363.834 258.528 364.165 257.025 364.165ZM257.045 361.259C257.86 361.259 258.541 361.035 259.089 360.588C259.637 360.133 260.044 359.525 260.312 358.764C260.585 358.002 260.722 357.154 260.722 356.219C260.722 355.277 260.585 354.425 260.312 353.663C260.044 352.895 259.637 352.284 259.089 351.83C258.541 351.375 257.86 351.148 257.045 351.148C256.21 351.148 255.515 351.375 254.961 351.83C254.413 352.284 254.002 352.895 253.728 353.663C253.461 354.425 253.327 355.277 253.327 356.219C253.327 357.154 253.461 358.002 253.728 358.764C254.002 359.525 254.413 360.133 254.961 360.588C255.515 361.035 256.21 361.259 257.045 361.259ZM271.106 354.846V363.864H267.479V348.473H270.946V351.088H271.126C271.48 350.226 272.045 349.542 272.82 349.034C273.601 348.526 274.567 348.272 275.716 348.272C276.778 348.272 277.703 348.499 278.491 348.954C279.286 349.408 279.901 350.066 280.335 350.928C280.776 351.79 280.993 352.835 280.986 354.064V363.864H277.359V354.625C277.359 353.597 277.092 352.792 276.557 352.21C276.03 351.629 275.298 351.339 274.363 351.339C273.728 351.339 273.164 351.479 272.669 351.759C272.182 352.033 271.798 352.431 271.517 352.952C271.243 353.473 271.106 354.104 271.106 354.846ZM291.368 369.957C290.065 369.957 288.946 369.78 288.011 369.426C287.076 369.078 286.324 368.611 285.756 368.023C285.188 367.435 284.794 366.784 284.574 366.069L287.84 365.277C287.987 365.578 288.201 365.875 288.482 366.169C288.762 366.47 289.14 366.717 289.614 366.911C290.095 367.111 290.7 367.211 291.428 367.211C292.457 367.211 293.308 366.961 293.983 366.46C294.658 365.965 294.995 365.15 294.995 364.015V361.099H294.815C294.628 361.473 294.354 361.857 293.993 362.251C293.639 362.645 293.168 362.976 292.58 363.243C291.999 363.51 291.267 363.644 290.386 363.644C289.203 363.644 288.131 363.367 287.169 362.812C286.214 362.251 285.452 361.416 284.884 360.307C284.323 359.191 284.043 357.795 284.043 356.118C284.043 354.428 284.323 353.002 284.884 351.84C285.452 350.671 286.217 349.785 287.179 349.184C288.141 348.576 289.213 348.272 290.396 348.272C291.298 348.272 292.039 348.426 292.62 348.733C293.208 349.034 293.676 349.398 294.023 349.825C294.371 350.246 294.634 350.644 294.815 351.018H295.015V348.473H298.592V364.115C298.592 365.431 298.279 366.52 297.651 367.381C297.023 368.243 296.164 368.888 295.075 369.315C293.986 369.743 292.751 369.957 291.368 369.957ZM291.398 360.798C292.166 360.798 292.821 360.611 293.362 360.237C293.903 359.863 294.314 359.325 294.594 358.624C294.875 357.922 295.015 357.08 295.015 356.098C295.015 355.13 294.875 354.281 294.594 353.553C294.32 352.825 293.913 352.26 293.372 351.86C292.837 351.452 292.179 351.248 291.398 351.248C290.589 351.248 289.915 351.459 289.374 351.88C288.832 352.301 288.425 352.878 288.151 353.613C287.877 354.341 287.74 355.17 287.74 356.098C287.74 357.04 287.877 357.865 288.151 358.573C288.432 359.275 288.843 359.823 289.384 360.217C289.931 360.604 290.603 360.798 291.398 360.798ZM309.47 363.864V343.342H317.326C318.809 343.342 320.041 343.576 321.023 344.044C322.012 344.505 322.75 345.136 323.238 345.938C323.732 346.739 323.98 347.648 323.98 348.663C323.98 349.498 323.819 350.213 323.499 350.808C323.178 351.395 322.747 351.873 322.206 352.24C321.665 352.608 321.06 352.872 320.392 353.032V353.232C321.12 353.273 321.818 353.496 322.486 353.904C323.161 354.305 323.712 354.872 324.14 355.607C324.567 356.342 324.781 357.231 324.781 358.273C324.781 359.335 324.524 360.29 324.01 361.139C323.495 361.98 322.72 362.645 321.685 363.133C320.649 363.62 319.347 363.864 317.777 363.864H309.47ZM313.187 360.758H317.186C318.535 360.758 319.507 360.501 320.102 359.986C320.703 359.465 321.003 358.797 321.003 357.982C321.003 357.374 320.853 356.827 320.552 356.339C320.252 355.844 319.824 355.457 319.27 355.176C318.715 354.889 318.054 354.746 317.286 354.746H313.187V360.758ZM313.187 352.07H316.865C317.506 352.07 318.084 351.953 318.598 351.719C319.113 351.479 319.517 351.142 319.811 350.707C320.112 350.266 320.262 349.745 320.262 349.144C320.262 348.349 319.981 347.694 319.42 347.18C318.866 346.666 318.041 346.408 316.945 346.408H313.187V352.07ZM337.665 357.391V348.473H341.293V363.864H337.775V361.129H337.615C337.268 361.99 336.696 362.695 335.901 363.243C335.113 363.791 334.141 364.065 332.985 364.065C331.977 364.065 331.085 363.841 330.31 363.393C329.542 362.939 328.941 362.281 328.506 361.419C328.072 360.551 327.855 359.502 327.855 358.273V348.473H331.482V357.712C331.482 358.687 331.75 359.462 332.284 360.036C332.818 360.611 333.52 360.898 334.388 360.898C334.923 360.898 335.441 360.768 335.942 360.507C336.443 360.247 336.853 359.859 337.174 359.345C337.501 358.824 337.665 358.173 337.665 357.391ZM347.277 369.636C346.783 369.636 346.325 369.596 345.904 369.516C345.49 369.442 345.16 369.356 344.912 369.255L345.754 366.43C346.282 366.583 346.753 366.657 347.167 366.65C347.581 366.643 347.945 366.513 348.259 366.259C348.58 366.012 348.85 365.598 349.071 365.017L349.382 364.185L343.8 348.473H347.648L351.195 360.097H351.356L354.913 348.473H358.771L352.608 365.728C352.321 366.543 351.94 367.241 351.466 367.822C350.992 368.41 350.41 368.858 349.722 369.165C349.041 369.479 348.226 369.636 347.277 369.636Z" fill="white"/>
</g>
<defs>
<linearGradient id="paint0_linear_1209_9752" x1="-927.854" y1="-1030.31" x2="633.623" y2="-767.947" gradientUnits="userSpaceOnUse">
<stop stop-color="#090909"/>
<stop offset="1" stop-color="#6F6F6F" stop-opacity="0"/>
</linearGradient>
<linearGradient id="paint1_linear_1209_9752" x1="282" y1="212.279" x2="282" y2="423.554" gradientUnits="userSpaceOnUse">
<stop stop-color="#30AD43"/>
<stop offset="0.489583" stop-color="#3D3D3D"/>
</linearGradient>
<clipPath id="clip0_1209_9752">
<rect x="89.1782" y="113" width="385.644" height="285" rx="22.5743" fill="white"/>
</clipPath>
</defs>
</svg>
