<svg width="18" height="21" viewBox="0 0 18 21" fill="none" xmlns="http://www.w3.org/2000/svg">
<path d="M17.2328 9.72654C17.2044 9.60633 17.1467 9.495 17.065 9.40243C16.9832 9.30986 16.8798 9.23892 16.764 9.19591L11.3631 7.16997L12.7375 0.295286C12.7686 0.135556 12.7469 -0.029963 12.6757 -0.176294C12.6045 -0.322624 12.4877 -0.441826 12.3428 -0.515913C12.1979 -0.589999 12.0328 -0.614949 11.8725 -0.586998C11.7122 -0.559047 11.5653 -0.479712 11.454 -0.360964L0.954035 10.889C0.868755 10.9789 0.807063 11.0885 0.774469 11.208C0.741876 11.3275 0.739397 11.4533 0.767253 11.574C0.79511 11.6947 0.852435 11.8066 0.934106 11.8998C1.01578 11.9929 1.11925 12.0644 1.23528 12.1078L6.6381 14.1337L5.26747 21.0009C5.23635 21.1606 5.25803 21.3262 5.32923 21.4725C5.40043 21.6188 5.51729 21.738 5.66218 21.8121C5.80708 21.8862 5.97213 21.9111 6.13245 21.8832C6.29276 21.8552 6.43964 21.7759 6.55091 21.6572L17.0509 10.4072C17.1346 10.3173 17.195 10.2082 17.2267 10.0895C17.2585 9.97085 17.2605 9.8462 17.2328 9.72654ZM7.25591 18.7106L8.23747 13.8C8.2726 13.6258 8.24477 13.4448 8.15892 13.2893C8.07308 13.1337 7.9348 13.0137 7.76872 12.9506L2.81497 11.0897L10.7481 2.59029L9.76747 7.50091C9.73234 7.67507 9.76018 7.85604 9.84602 8.01159C9.93187 8.16714 10.0701 8.28717 10.2362 8.35029L15.1862 10.2065L7.25591 18.7106Z" fill="white" fill-opacity="0.7"/>
</svg>
