<svg width="17" height="24" viewBox="0 0 17 24" fill="none" xmlns="http://www.w3.org/2000/svg">
<path d="M16.4847 10.9729C16.4563 10.8527 16.3987 10.7413 16.3169 10.6488C16.2351 10.5562 16.1318 10.4853 16.016 10.4422L10.615 8.41631L11.9894 1.54162C12.0205 1.38189 11.9989 1.21637 11.9277 1.07004C11.8565 0.923714 11.7396 0.804512 11.5947 0.730425C11.4498 0.656339 11.2848 0.631389 11.1244 0.65934C10.9641 0.687291 10.8173 0.766626 10.706 0.885374L0.205988 12.1354C0.120708 12.2252 0.0590157 12.3348 0.0264224 12.4543C-0.0061709 12.5739 -0.00865008 12.6996 0.0192066 12.8203C0.0470632 12.941 0.104388 13.0529 0.186059 13.1461C0.267731 13.2393 0.371205 13.3107 0.487238 13.3541L5.89005 15.3801L4.51943 22.2472C4.4883 22.407 4.50998 22.5725 4.58118 22.7188C4.65238 22.8652 4.76925 22.9844 4.91414 23.0584C5.05903 23.1325 5.22409 23.1575 5.3844 23.1295C5.54472 23.1016 5.69159 23.0222 5.80286 22.9035L16.3029 11.6535C16.3866 11.5636 16.447 11.4545 16.4787 11.3359C16.5104 11.2172 16.5125 11.0925 16.4847 10.9729ZM6.50786 19.9569L7.48942 15.0463C7.52456 14.8722 7.49672 14.6912 7.41087 14.5356C7.32503 14.3801 7.18675 14.2601 7.02067 14.1969L2.06693 12.336L10 3.83662L9.01943 8.74725C8.9843 8.92141 9.01213 9.10238 9.09798 9.25793C9.18382 9.41348 9.3221 9.53351 9.48818 9.59662L14.4382 11.4529L6.50786 19.9569Z" fill="#7BF080"/>
</svg>
