<svg width="24" height="25" viewBox="0 0 24 25" fill="none" xmlns="http://www.w3.org/2000/svg">
<path d="M20.0325 20.6431H3.96753C3.12246 20.6421 2.31228 20.306 1.71472 19.7084C1.11717 19.1109 0.781022 18.3007 0.780029 17.4556V7.84064C0.781022 6.99556 1.11717 6.18539 1.71472 5.58783C2.31228 4.99027 3.12246 4.65413 3.96753 4.65314H20.0325C20.8776 4.65413 21.6878 4.99027 22.2853 5.58783C22.8829 6.18539 23.219 6.99556 23.22 7.84064V17.4556C23.219 18.3007 22.8829 19.1109 22.2853 19.7084C21.6878 20.306 20.8776 20.6421 20.0325 20.6431ZM3.96753 5.77814C3.42052 5.77814 2.89592 5.99544 2.50912 6.38223C2.12233 6.76902 1.90503 7.29363 1.90503 7.84064V17.4556C1.90503 18.0026 2.12233 18.5273 2.50912 18.914C2.89592 19.3008 3.42052 19.5181 3.96753 19.5181H20.0325C20.5795 19.5181 21.1041 19.3008 21.4909 18.914C21.8777 18.5273 22.095 18.0026 22.095 17.4556V7.84064C22.095 7.29363 21.8777 6.76902 21.4909 6.38223C21.1041 5.99544 20.5795 5.77814 20.0325 5.77814H3.96753Z" fill="white" fill-opacity="0.7"/>
<path d="M12 14.9282C11.3061 14.9292 10.6308 14.7041 10.0763 14.2869L1.32005 7.6644C1.25818 7.62098 1.2057 7.56554 1.16574 7.50138C1.12578 7.43723 1.09915 7.36568 1.08746 7.291C1.07577 7.21633 1.07924 7.14007 1.09768 7.06677C1.11612 6.99347 1.14914 6.92464 1.19477 6.86438C1.2404 6.80413 1.29771 6.75369 1.36327 6.71608C1.42883 6.67846 1.5013 6.65445 1.57634 6.64547C1.65139 6.63648 1.72748 6.64272 1.80006 6.6638C1.87265 6.68488 1.94024 6.72037 1.9988 6.76815L10.7551 13.3982C11.1146 13.6666 11.5513 13.8116 12 13.8116C12.4488 13.8116 12.8855 13.6666 13.2451 13.3982L22.0013 6.76815C22.0599 6.72037 22.1275 6.68488 22.2 6.6638C22.2726 6.64272 22.3487 6.63648 22.4238 6.64547C22.4988 6.65445 22.5713 6.67846 22.6368 6.71608C22.7024 6.75369 22.7597 6.80413 22.8053 6.86438C22.851 6.92464 22.884 6.99347 22.9024 7.06677C22.9209 7.14007 22.9243 7.21633 22.9126 7.291C22.9009 7.36568 22.8743 7.43723 22.8344 7.50138C22.7944 7.56554 22.7419 7.62098 22.68 7.6644L13.9238 14.2869C13.3693 14.7041 12.694 14.9292 12 14.9282Z" fill="white" fill-opacity="0.7"/>
<path d="M1.56369 19.0756C1.44961 19.0758 1.33817 19.0413 1.24416 18.9766C1.15016 18.912 1.07803 18.8203 1.03734 18.7137C0.996663 18.6071 0.989352 18.4907 1.01638 18.3798C1.04341 18.269 1.10351 18.169 1.18869 18.0931L8.08869 11.9394C8.20008 11.8399 8.34642 11.7888 8.49551 11.7972C8.6446 11.8057 8.78424 11.873 8.88369 11.9844C8.98315 12.0958 9.03428 12.2421 9.02584 12.3912C9.0174 12.5403 8.95008 12.6799 8.83869 12.7794L1.93869 18.9331C1.83622 19.0264 1.70222 19.0773 1.56369 19.0756ZM22.4362 19.0756C22.2977 19.0773 22.1637 19.0264 22.0612 18.9331L15.1612 12.7794C15.0498 12.6799 14.9825 12.5403 14.974 12.3912C14.9656 12.2421 15.0167 12.0958 15.1162 11.9844C15.2156 11.873 15.3553 11.8057 15.5044 11.7972C15.6535 11.7888 15.7998 11.8399 15.9112 11.9394L22.8074 18.0931C22.8926 18.169 22.9527 18.269 22.9797 18.3798C23.0068 18.4907 22.9995 18.6071 22.9588 18.7137C22.9181 18.8203 22.846 18.912 22.752 18.9766C22.658 19.0413 22.5465 19.0758 22.4324 19.0756H22.4362Z" fill="white" fill-opacity="0.7"/>
</svg>
