<svg width="18" height="19" viewBox="0 0 18 19" fill="none" xmlns="http://www.w3.org/2000/svg">
<path d="M12.375 6.125C12.375 5.97582 12.4343 5.83274 12.5398 5.72725C12.6452 5.62176 12.7883 5.5625 12.9375 5.5625H15.1875C15.3367 5.5625 15.4798 5.62176 15.5852 5.72725C15.6907 5.83274 15.75 5.97582 15.75 6.125C15.75 6.27418 15.6907 6.41726 15.5852 6.52275C15.4798 6.62824 15.3367 6.6875 15.1875 6.6875H12.9375C12.7883 6.6875 12.6452 6.62824 12.5398 6.52275C12.4343 6.41726 12.375 6.27418 12.375 6.125ZM2.8125 6.6875H10.125V7.8125C10.125 7.96168 10.1843 8.10476 10.2898 8.21025C10.3952 8.31574 10.5383 8.375 10.6875 8.375C10.8367 8.375 10.9798 8.31574 11.0852 8.21025C11.1907 8.10476 11.25 7.96168 11.25 7.8125V4.4375C11.25 4.28832 11.1907 4.14524 11.0852 4.03975C10.9798 3.93426 10.8367 3.875 10.6875 3.875C10.5383 3.875 10.3952 3.93426 10.2898 4.03975C10.1843 4.14524 10.125 4.28832 10.125 4.4375V5.5625H2.8125C2.66332 5.5625 2.52024 5.62176 2.41475 5.72725C2.30926 5.83274 2.25 5.97582 2.25 6.125C2.25 6.27418 2.30926 6.41726 2.41475 6.52275C2.52024 6.62824 2.66332 6.6875 2.8125 6.6875ZM15.1875 12.3125H8.4375C8.28832 12.3125 8.14524 12.3718 8.03975 12.4773C7.93426 12.5827 7.875 12.7258 7.875 12.875C7.875 13.0242 7.93426 13.1673 8.03975 13.2727C8.14524 13.3782 8.28832 13.4375 8.4375 13.4375H15.1875C15.3367 13.4375 15.4798 13.3782 15.5852 13.2727C15.6907 13.1673 15.75 13.0242 15.75 12.875C15.75 12.7258 15.6907 12.5827 15.5852 12.4773C15.4798 12.3718 15.3367 12.3125 15.1875 12.3125ZM6.1875 10.625C6.03832 10.625 5.89524 10.6843 5.78975 10.7898C5.68426 10.8952 5.625 11.0383 5.625 11.1875V12.3125H2.8125C2.66332 12.3125 2.52024 12.3718 2.41475 12.4773C2.30926 12.5827 2.25 12.7258 2.25 12.875C2.25 13.0242 2.30926 13.1673 2.41475 13.2727C2.52024 13.3782 2.66332 13.4375 2.8125 13.4375H5.625V14.5625C5.625 14.7117 5.68426 14.8548 5.78975 14.9602C5.89524 15.0657 6.03832 15.125 6.1875 15.125C6.33668 15.125 6.47976 15.0657 6.58525 14.9602C6.69074 14.8548 6.75 14.7117 6.75 14.5625V11.1875C6.75 11.0383 6.69074 10.8952 6.58525 10.7898C6.47976 10.6843 6.33668 10.625 6.1875 10.625Z" fill="white"/>
</svg>
