<svg width="24" height="25" viewBox="0 0 24 25" fill="none" xmlns="http://www.w3.org/2000/svg">
<g clip-path="url(#clip0_1193_3886)">
<path d="M23.9873 12.8779C23.9873 11.8717 23.9057 11.1374 23.729 10.376H12.239V14.9175H18.9833C18.8474 16.0461 18.1132 17.7458 16.4814 18.888L16.4585 19.04L20.0915 21.8544L20.3431 21.8795C22.6547 19.7447 23.9873 16.6036 23.9873 12.8779Z" fill="white"/>
<path d="M12.2391 24.8438C15.5433 24.8438 18.3171 23.7559 20.3432 21.8795L16.4815 18.888C15.4481 19.6087 14.0611 20.1118 12.2391 20.1118C9.00291 20.1118 6.25622 17.977 5.27711 15.0264L5.13359 15.0386L1.35604 17.962L1.30664 18.0994C3.31906 22.097 7.45273 24.8438 12.2391 24.8438Z" fill="white"/>
<path d="M5.27702 15.0263C5.01867 14.2649 4.86916 13.449 4.86916 12.606C4.86916 11.7629 5.01867 10.947 5.26343 10.1856L5.25659 10.0234L1.4317 7.05298L1.30655 7.1125C0.47714 8.77143 0.0012207 10.6343 0.0012207 12.606C0.0012207 14.5776 0.47714 16.4404 1.30655 18.0993L5.27702 15.0263Z" fill="white"/>
<path d="M12.2391 5.10008C14.5371 5.10008 16.0871 6.0927 16.971 6.92221L20.4248 3.54999C18.3036 1.57835 15.5433 0.368164 12.2391 0.368164C7.45273 0.368164 3.31906 3.11485 1.30664 7.1125L5.26351 10.1856C6.25622 7.23493 9.00291 5.10008 12.2391 5.10008Z" fill="white"/>
</g>
<defs>
<clipPath id="clip0_1193_3886">
<rect width="24" height="24.56" fill="white" transform="translate(0 0.368164)"/>
</clipPath>
</defs>
</svg>
