<svg width="19" height="19" viewBox="0 0 19 19" fill="none" xmlns="http://www.w3.org/2000/svg">
<path d="M16.6479 6.10873L7.64792 15.1087C7.59567 15.161 7.53364 15.2025 7.46535 15.2308C7.39706 15.2591 7.32387 15.2737 7.24995 15.2737C7.17603 15.2737 7.10283 15.2591 7.03454 15.2308C6.96626 15.2025 6.90422 15.161 6.85198 15.1087L2.91448 11.1712C2.80893 11.0657 2.74963 10.9225 2.74963 10.7733C2.74963 10.624 2.80893 10.4808 2.91448 10.3753C3.02003 10.2697 3.16318 10.2104 3.31245 10.2104C3.46171 10.2104 3.60487 10.2697 3.71042 10.3753L7.24995 13.9155L15.852 5.31279C15.9575 5.20725 16.1007 5.14795 16.2499 5.14795C16.3992 5.14795 16.5424 5.20725 16.6479 5.31279C16.7535 5.41834 16.8128 5.56149 16.8128 5.71076C16.8128 5.86003 16.7535 6.00318 16.6479 6.10873Z" fill="#7BF080"/>
</svg>
