<svg width="18" height="14" viewBox="0 0 18 14" fill="none" xmlns="http://www.w3.org/2000/svg">
<path d="M18 6.82397C18 7.02289 17.921 7.21365 17.7803 7.35431C17.6397 7.49496 17.4489 7.57397 17.25 7.57397H0.75C0.551088 7.57397 0.360322 7.49496 0.21967 7.35431C0.0790178 7.21365 0 7.02289 0 6.82397C0 6.62506 0.0790178 6.4343 0.21967 6.29364C0.360322 6.15299 0.551088 6.07397 0.75 6.07397H17.25C17.4489 6.07397 17.6397 6.15299 17.7803 6.29364C17.921 6.4343 18 6.62506 18 6.82397ZM0.75 1.57397H17.25C17.4489 1.57397 17.6397 1.49496 17.7803 1.3543C17.921 1.21365 18 1.02289 18 0.823975C18 0.625062 17.921 0.434297 17.7803 0.293645C17.6397 0.152992 17.4489 0.0739746 17.25 0.0739746H0.75C0.551088 0.0739746 0.360322 0.152992 0.21967 0.293645C0.0790178 0.434297 0 0.625062 0 0.823975C0 1.02289 0.0790178 1.21365 0.21967 1.3543C0.360322 1.49496 0.551088 1.57397 0.75 1.57397ZM17.25 12.074H0.75C0.551088 12.074 0.360322 12.153 0.21967 12.2936C0.0790178 12.4343 0 12.6251 0 12.824C0 13.0229 0.0790178 13.2137 0.21967 13.3543C0.360322 13.495 0.551088 13.574 0.75 13.574H17.25C17.4489 13.574 17.6397 13.495 17.7803 13.3543C17.921 13.2137 18 13.0229 18 12.824C18 12.6251 17.921 12.4343 17.7803 12.2936C17.6397 12.153 17.4489 12.074 17.25 12.074Z" fill="white"/>
</svg>
