<svg width="25" height="24" viewBox="0 0 25 24" fill="none" xmlns="http://www.w3.org/2000/svg">
<g clip-path="url(#clip0_1193_5167)">
<path d="M9.93333 17.0057L9.17905 16.2515C9.13333 16.2972 9.08762 16.32 9.0419 16.3657C8.8819 16.48 8.7219 16.6172 8.5619 16.7315C8.47047 16.8 8.37905 16.8686 8.28762 16.9372C8.12762 17.0515 7.99047 17.1657 7.85333 17.28L7.39619 17.6457C7.37333 17.6686 7.35047 17.6915 7.32762 17.6915C7.32762 17.6915 7.30476 17.6915 7.30476 17.7143C7.2819 17.7143 7.2819 17.7372 7.25905 17.7372C7.25905 17.7372 7.23619 17.7372 7.21333 17.7372C7.19047 17.7372 7.19047 17.7372 7.16762 17.7372C7.14476 17.7372 7.14476 17.7372 7.1219 17.7372H7.09905C7.09905 17.7372 7.09905 17.7372 7.07619 17.7372C7.05333 17.7372 7.03047 17.7372 7.03047 17.7372C7.00762 17.7372 7.00762 17.7372 6.98476 17.7372C6.9619 17.7372 6.93905 17.7372 6.93905 17.7143C6.91619 17.7143 6.91619 17.7143 6.89333 17.6915C6.87047 17.6915 6.84762 17.6686 6.84762 17.6686C6.84762 17.6686 6.82476 17.6686 6.82476 17.6457C6.8019 17.6229 6.77905 17.6 6.75619 17.5772C6.57333 17.3943 6.55047 17.12 6.71047 16.9143C6.82476 16.7772 6.93905 16.6172 7.05333 16.48C7.07619 16.4343 7.09905 16.4115 7.14476 16.3657C7.23619 16.2515 7.35047 16.1143 7.4419 15.9772C7.46476 15.9543 7.48762 15.9315 7.48762 15.9086C7.6019 15.7715 7.71619 15.6343 7.83047 15.4743C7.85333 15.4515 7.87619 15.4286 7.87619 15.4057C7.94476 15.3143 8.03619 15.2 8.10476 15.1086L7.7619 14.7657L7.32762 14.4C6.82476 14.7657 6.34476 15.1772 5.88762 15.6343C4.33333 17.1886 3.9219 19.4743 3.80762 20.3886C3.80762 20.4343 3.83047 20.48 3.85333 20.48C3.87619 20.5029 3.89905 20.5257 3.94476 20.5257C4.85905 20.4115 7.14476 20 8.69905 18.4457C9.15619 17.9886 9.56762 17.5086 9.93333 17.0057Z" fill="#9A9B9E"/>
<path d="M8.24182 16.3885C8.26467 16.3656 8.28753 16.3656 8.28753 16.3428C8.53896 16.1599 8.79039 15.9542 9.01896 15.7714L9.04182 15.7485C10.6875 14.4685 11.579 13.7371 11.6932 13.6228C11.7161 13.5999 11.7618 13.5542 11.7847 13.5085C11.9675 13.2342 11.9218 12.8685 11.6932 12.6399C11.419 12.3656 10.9847 12.3656 10.7104 12.6399C10.6875 12.6628 10.6418 12.7085 10.5732 12.7999C10.2761 13.1656 9.56753 14.0571 8.60753 15.2456C8.60753 15.2456 8.60753 15.2685 8.58467 15.2685C8.05896 15.9314 7.51039 16.6171 7.05325 17.2342V17.2571L7.2361 17.4399L7.09896 17.2571L7.5561 16.8914C7.78467 16.7314 8.01324 16.5485 8.24182 16.3885ZM7.32753 12.6399C7.32753 12.6171 7.35039 12.5942 7.35039 12.5714C7.41896 12.3885 7.51039 12.2056 7.60182 12.0456C7.62467 12.0228 7.62467 11.9771 7.64753 11.9542C7.73896 11.7714 7.83039 11.6114 7.92182 11.4285C7.94467 11.4056 7.94467 11.3828 7.96753 11.3599C8.05896 11.1771 8.17324 10.9714 8.28753 10.7885C8.31039 10.7428 8.33324 10.6971 8.3561 10.6742C8.47039 10.4914 8.58467 10.2856 8.72182 10.1028C8.72182 10.0799 8.74467 10.0799 8.74467 10.0571C8.58467 10.0342 8.37896 10.0114 8.10467 10.0114C7.14467 10.0114 5.56753 10.3771 3.85325 12.2056C2.25324 13.9199 1.61324 15.1999 1.36182 15.9771C2.4361 14.6514 4.69896 12.3885 7.32753 12.6399Z" fill="#9A9B9E"/>
<path d="M23.2361 1.09711C23.2132 1.07425 23.1446 1.02854 23.0761 1.0514C21.9789 1.2114 19.7846 1.64568 17.4303 2.74282C17.3846 2.76568 17.3618 2.76568 17.3161 2.78854C15.4875 3.63425 13.9561 4.70854 12.6989 5.94282C11.3961 7.24568 10.2303 8.63997 9.31606 10.0114C9.24749 10.1028 9.20177 10.1943 9.1332 10.2857C8.51606 11.2457 8.03606 12.16 7.6932 13.0057C7.60177 13.2114 7.5332 13.3943 7.48749 13.5771C7.44177 13.7143 7.48749 13.8743 7.60177 13.9885L8.10463 14.4914L8.40177 14.7885C8.6532 14.4685 8.9732 14.0571 9.2932 13.6685C9.2932 13.6685 9.2932 13.6457 9.31606 13.6457C9.36177 13.5771 9.40749 13.5314 9.47606 13.4628L9.49892 13.44C9.54463 13.3943 9.59035 13.3257 9.6132 13.28C9.63606 13.2571 9.65892 13.2343 9.68177 13.2114C9.70463 13.1657 9.75035 13.1428 9.7732 13.0971C9.79606 13.0743 9.81892 13.0514 9.84177 13.0285C9.86463 13.0057 9.88749 12.96 9.91035 12.9371C9.9332 12.9143 9.95606 12.8685 9.97892 12.8457C10.0018 12.8228 10.0246 12.8 10.0246 12.7771C10.0475 12.7543 10.0703 12.7085 10.0932 12.6857C10.1161 12.6628 10.1161 12.6628 10.1389 12.64C10.1618 12.6171 10.1846 12.5714 10.2075 12.5485L10.2303 12.5257C10.2532 12.5028 10.2761 12.48 10.2989 12.4571C10.2989 12.4571 10.2989 12.4343 10.3218 12.4343C10.3446 12.4114 10.3675 12.3885 10.3675 12.3657C10.3903 12.3428 10.3903 12.3428 10.4132 12.32C10.6418 12.1143 10.9161 11.9771 11.2361 11.9771C11.5561 11.9771 11.8303 12.0914 12.0589 12.32C12.4703 12.7314 12.5161 13.3714 12.1732 13.8285C12.1275 13.8743 12.1046 13.92 12.0589 13.9657C11.9218 14.1028 11.1446 14.72 9.56749 15.9543L10.3675 16.7543L10.3903 16.7771C10.5046 16.8685 10.6418 16.9143 10.7789 16.8685C10.9618 16.8 11.1446 16.7314 11.3503 16.6628C12.2875 16.2971 13.2932 15.7485 14.3446 15.04C15.7161 14.1028 17.0875 12.9828 18.4132 11.6571C19.6703 10.4 20.7218 8.86854 21.5675 7.03997C21.5675 7.01711 21.5903 7.01711 21.5903 6.99425C21.5903 6.9714 21.6132 6.9714 21.6132 6.94854L21.6361 6.92568C22.7332 4.54854 23.1675 2.35425 23.3503 1.27997C23.3046 1.16568 23.2589 1.11997 23.2361 1.09711ZM18.5503 9.30282C18.0703 9.78282 17.4303 10.0343 16.7903 10.0343C16.1503 10.0343 15.5103 9.78282 15.0303 9.30282C14.0475 8.31997 14.0475 6.74282 15.0303 5.75997C16.0132 4.77711 17.5903 4.77711 18.5732 5.75997C19.5332 6.74282 19.5332 8.34282 18.5503 9.30282Z" fill="#9A9B9E"/>
<path d="M16.7903 5.53137C16.2646 5.53137 15.7618 5.73709 15.3503 6.12566C14.5732 6.9028 14.5732 8.20566 15.3503 8.9828C16.1275 9.75994 17.4303 9.75994 18.2075 8.9828C18.9846 8.20566 18.9846 6.9028 18.2075 6.12566C17.8189 5.71423 17.2932 5.53137 16.7903 5.53137ZM14.2532 15.6342C14.0703 15.7485 13.8646 15.8857 13.6818 15.9771C13.636 15.9999 13.5903 16.0228 13.5446 16.0685C13.3618 16.1828 13.1789 16.2971 12.9732 16.3885C12.9503 16.4114 12.9046 16.4114 12.8818 16.4342C12.7218 16.5257 12.5389 16.6171 12.3789 16.6857C12.3332 16.7085 12.3103 16.7314 12.2646 16.7314C12.0818 16.8228 11.9218 16.8914 11.7389 16.9599C11.716 16.9599 11.6932 16.9828 11.6703 16.9828C11.9446 19.5885 9.68176 21.8742 8.37891 22.9485C9.15605 22.6971 10.436 22.0571 12.1503 20.4571C14.4818 18.2857 14.436 16.3199 14.2989 15.5657C14.276 15.6114 14.276 15.6114 14.2532 15.6342Z" fill="#9A9B9E"/>
</g>
<defs>
<clipPath id="clip0_1193_5167">
<rect width="24" height="24" fill="white" transform="translate(0.333252)"/>
</clipPath>
</defs>
</svg>
