<svg width="24" height="25" viewBox="0 0 24 25" fill="none" xmlns="http://www.w3.org/2000/svg">
<path d="M20.7806 12.6787L14.0306 19.4287C13.8899 19.5695 13.699 19.6485 13.5 19.6485C13.301 19.6485 13.1101 19.5695 12.9694 19.4287C12.8286 19.288 12.7496 19.0971 12.7496 18.8981C12.7496 18.6991 12.8286 18.5082 12.9694 18.3675L18.4397 12.8981H3.75C3.55109 12.8981 3.36032 12.8191 3.21967 12.6785C3.07902 12.5378 3 12.347 3 12.1481C3 11.9492 3.07902 11.7584 3.21967 11.6178C3.36032 11.4771 3.55109 11.3981 3.75 11.3981H18.4397L12.9694 5.92875C12.8286 5.78802 12.7496 5.59715 12.7496 5.39812C12.7496 5.1991 12.8286 5.00823 12.9694 4.8675C13.1101 4.72677 13.301 4.64771 13.5 4.64771C13.699 4.64771 13.8899 4.72677 14.0306 4.8675L20.7806 11.6175C20.8504 11.6872 20.9057 11.7699 20.9434 11.8609C20.9812 11.952 21.0006 12.0496 21.0006 12.1481C21.0006 12.2467 20.9812 12.3443 20.9434 12.4353C20.9057 12.5264 20.8504 12.6091 20.7806 12.6787Z" fill="white" fill-opacity="0.7"/>
</svg>
