<svg width="12" height="7" viewBox="0 0 12 7" fill="none" xmlns="http://www.w3.org/2000/svg">
<path d="M0.0416365 0.563887C0.0828991 0.464214 0.152791 0.379015 0.242475 0.319065C0.332158 0.259114 0.437604 0.227104 0.54548 0.227082L11.4541 0.227082C11.5621 0.226996 11.6676 0.25894 11.7574 0.318867C11.8472 0.378794 11.9171 0.464011 11.9585 0.563728C11.9998 0.663446 12.0106 0.773181 11.9895 0.879041C11.9684 0.984901 11.9164 1.08213 11.84 1.15841L6.3857 6.61274C6.33505 6.66345 6.27489 6.70368 6.20868 6.73113C6.14246 6.75858 6.07149 6.77271 5.99981 6.77271C5.92813 6.77271 5.85716 6.75858 5.79094 6.73113C5.72473 6.70368 5.66457 6.66345 5.61391 6.61274L0.159586 1.15841C0.0833311 1.08209 0.0314226 0.984865 0.0104275 0.879039C-0.0105677 0.773213 0.000293732 0.663539 0.0416365 0.563887Z" fill="#EA3943"/>
</svg>
