<svg width="14" height="18" viewBox="0 0 14 18" fill="none" xmlns="http://www.w3.org/2000/svg">
<path d="M10.125 11.0155C10.125 11.1813 10.0592 11.3402 9.94194 11.4575C9.82473 11.5747 9.66576 11.6405 9.5 11.6405H4.5C4.33424 11.6405 4.17527 11.5747 4.05806 11.4575C3.94085 11.3402 3.875 11.1813 3.875 11.0155C3.875 10.8498 3.94085 10.6908 4.05806 10.5736C4.17527 10.4564 4.33424 10.3905 4.5 10.3905H9.5C9.66576 10.3905 9.82473 10.4564 9.94194 10.5736C10.0592 10.6908 10.125 10.8498 10.125 11.0155ZM9.5 7.89051H4.5C4.33424 7.89051 4.17527 7.95636 4.05806 8.07357C3.94085 8.19078 3.875 8.34975 3.875 8.51551C3.875 8.68127 3.94085 8.84024 4.05806 8.95745C4.17527 9.07466 4.33424 9.14051 4.5 9.14051H9.5C9.66576 9.14051 9.82473 9.07466 9.94194 8.95745C10.0592 8.84024 10.125 8.68127 10.125 8.51551C10.125 8.34975 10.0592 8.19078 9.94194 8.07357C9.82473 7.95636 9.66576 7.89051 9.5 7.89051ZM13.875 2.89051V16.0155C13.875 16.347 13.7433 16.665 13.5089 16.8994C13.2745 17.1338 12.9565 17.2655 12.625 17.2655H1.375C1.04348 17.2655 0.725537 17.1338 0.491116 16.8994C0.256696 16.665 0.125 16.347 0.125 16.0155V2.89051C0.125 2.55899 0.256696 2.24105 0.491116 2.00663C0.725537 1.77221 1.04348 1.64051 1.375 1.64051H4.20781C4.55899 1.24733 4.98924 0.932744 5.47041 0.717354C5.95158 0.501964 6.47282 0.390625 7 0.390625C7.52718 0.390625 8.04841 0.501964 8.52958 0.717354C9.01076 0.932744 9.44101 1.24733 9.79219 1.64051H12.625C12.9565 1.64051 13.2745 1.77221 13.5089 2.00663C13.7433 2.24105 13.875 2.55899 13.875 2.89051ZM4.5 4.14051H9.5C9.5 3.47747 9.23661 2.84159 8.76777 2.37274C8.29893 1.9039 7.66304 1.64051 7 1.64051C6.33696 1.64051 5.70107 1.9039 5.23223 2.37274C4.76339 2.84159 4.5 3.47747 4.5 4.14051ZM12.625 2.89051H10.5352C10.6773 3.29193 10.75 3.71466 10.75 4.14051V4.76551C10.75 4.93127 10.6842 5.09024 10.5669 5.20745C10.4497 5.32466 10.2908 5.39051 10.125 5.39051H3.875C3.70924 5.39051 3.55027 5.32466 3.43306 5.20745C3.31585 5.09024 3.25 4.93127 3.25 4.76551V4.14051C3.25001 3.71466 3.32267 3.29193 3.46484 2.89051H1.375V16.0155H12.625V2.89051Z" fill="white" fill-opacity="0.7"/>
</svg>
