<svg width="14" height="18" viewBox="0 0 14 18" fill="none" xmlns="http://www.w3.org/2000/svg">
<path d="M10.125 11.5231C10.125 11.6888 10.0592 11.8478 9.94194 11.965C9.82473 12.0822 9.66576 12.1481 9.5 12.1481H4.5C4.33424 12.1481 4.17527 12.0822 4.05806 11.965C3.94085 11.8478 3.875 11.6888 3.875 11.5231C3.875 11.3573 3.94085 11.1983 4.05806 11.0811C4.17527 10.9639 4.33424 10.8981 4.5 10.8981H9.5C9.66576 10.8981 9.82473 10.9639 9.94194 11.0811C10.0592 11.1983 10.125 11.3573 10.125 11.5231ZM9.5 8.39808H4.5C4.33424 8.39808 4.17527 8.46393 4.05806 8.58114C3.94085 8.69835 3.875 8.85732 3.875 9.02308C3.875 9.18884 3.94085 9.34781 4.05806 9.46502C4.17527 9.58223 4.33424 9.64808 4.5 9.64808H9.5C9.66576 9.64808 9.82473 9.58223 9.94194 9.46502C10.0592 9.34781 10.125 9.18884 10.125 9.02308C10.125 8.85732 10.0592 8.69835 9.94194 8.58114C9.82473 8.46393 9.66576 8.39808 9.5 8.39808ZM13.875 3.39808V16.5231C13.875 16.8546 13.7433 17.1725 13.5089 17.407C13.2745 17.6414 12.9565 17.7731 12.625 17.7731H1.375C1.04348 17.7731 0.725537 17.6414 0.491116 17.407C0.256696 17.1725 0.125 16.8546 0.125 16.5231V3.39808C0.125 3.06656 0.256696 2.74862 0.491116 2.5142C0.725537 2.27978 1.04348 2.14808 1.375 2.14808H4.20781C4.55899 1.7549 4.98924 1.44031 5.47041 1.22492C5.95158 1.00953 6.47282 0.898193 7 0.898193C7.52718 0.898193 8.04841 1.00953 8.52958 1.22492C9.01076 1.44031 9.44101 1.7549 9.79219 2.14808H12.625C12.9565 2.14808 13.2745 2.27978 13.5089 2.5142C13.7433 2.74862 13.875 3.06656 13.875 3.39808ZM4.5 4.64808H9.5C9.5 3.98504 9.23661 3.34915 8.76777 2.88031C8.29893 2.41147 7.66304 2.14808 7 2.14808C6.33696 2.14808 5.70107 2.41147 5.23223 2.88031C4.76339 3.34915 4.5 3.98504 4.5 4.64808ZM12.625 3.39808H10.5352C10.6773 3.7995 10.75 4.22223 10.75 4.64808V5.27308C10.75 5.43884 10.6842 5.59781 10.5669 5.71502C10.4497 5.83223 10.2908 5.89808 10.125 5.89808H3.875C3.70924 5.89808 3.55027 5.83223 3.43306 5.71502C3.31585 5.59781 3.25 5.43884 3.25 5.27308V4.64808C3.25001 4.22223 3.32267 3.7995 3.46484 3.39808H1.375V16.5231H12.625V3.39808Z" fill="#7BF080"/>
</svg>
