<svg width="13" height="7" viewBox="0 0 13 7" fill="none" xmlns="http://www.w3.org/2000/svg">
<path d="M12.4584 6.43611C12.4171 6.53579 12.3472 6.62099 12.2575 6.68094C12.1678 6.74089 12.0624 6.7729 11.9545 6.77292H1.04586C0.937924 6.773 0.832386 6.74106 0.742611 6.68113C0.652837 6.62121 0.582861 6.53599 0.541543 6.43627C0.500225 6.33655 0.489423 6.22682 0.510504 6.12096C0.531585 6.0151 0.583602 5.91787 0.659969 5.84159L6.1143 0.387263C6.16495 0.336551 6.22511 0.29632 6.29132 0.268872C6.35754 0.241423 6.42851 0.227295 6.50019 0.227295C6.57187 0.227295 6.64284 0.241423 6.70906 0.268872C6.77527 0.29632 6.83543 0.336551 6.88609 0.387263L12.3404 5.84159C12.4167 5.91791 12.4686 6.01514 12.4896 6.12096C12.5106 6.22679 12.4997 6.33646 12.4584 6.43611Z" fill="#7BF080"/>
</svg>
