<svg width="487" height="210" viewBox="0 0 487 210" fill="none" xmlns="http://www.w3.org/2000/svg">
<path d="M439 0H255C228.49 0 207 21.4903 207 48V162C207 188.51 228.49 210 255 210H439C465.51 210 487 188.51 487 162V48C487 21.4903 465.51 0 439 0Z" fill="#E91E63"/>
<path d="M4.57007 124.03L66.4501 201.04C76.0601 213 94.2801 212.99 103.88 201.02L165.62 124.02C175.07 112.24 166.68 94.76 151.58 94.76H130.33V27.35C130.33 14.1 119.58 3.35001 106.33 3.35001H63.8101C50.5601 3.35001 39.8101 14.1 39.8101 27.35V94.76H18.6101C3.50008 94.76 -4.88993 112.26 4.58007 124.04L4.57007 124.03Z" fill="#E91E63"/>
<path d="M312.28 138H335C338.31 138 341 135.31 341 132C341 128.69 338.31 126 335 126H312.28C309.37 126 307 123.63 307 120.72V111H335C338.31 111 341 108.31 341 105C341 101.69 338.31 99 335 99H307V87.26C307 84.36 309.36 82 312.26 82H335C338.31 82 341 79.31 341 76C341 72.69 338.31 70 335 70H312.26C302.74 70 295 77.74 295 87.26V120.71C295 130.24 302.75 137.99 312.28 137.99V138ZM369.9 139H394C397.31 139 400 136.31 400 133C400 129.69 397.31 127 394 127H369.9C367.75 127 366 125.25 366 123.1V77C366 73.69 363.31 71 360 71C356.69 71 354 73.69 354 77V123.1C354 131.87 361.13 139 369.9 139ZM454 127H429.9C427.75 127 426 125.25 426 123.1V77C426 73.69 423.31 71 420 71C416.69 71 414 73.69 414 77V123.1C414 131.87 421.13 139 429.9 139H454C457.31 139 460 136.31 460 133C460 129.69 457.31 127 454 127ZM254.59 111H259.81C264.51 111 268.33 114.81 268.33 119.5C268.33 124.19 264.51 128 259.81 128H251.54C248.64 128 246.28 125.64 246.28 122.74C246.28 119.43 243.59 116.74 240.28 116.74C236.97 116.74 234.28 119.43 234.28 122.74C234.28 132.26 242.02 140 251.54 140H259.81C271.13 140 280.33 130.8 280.33 119.5C280.33 108.2 271.12 99 259.81 99H254.59C249.89 99 246.07 95.19 246.07 90.5C246.07 85.81 249.89 82 254.59 82H262.86C265.76 82 268.12 84.36 268.12 87.26C268.12 90.57 270.81 93.26 274.12 93.26C277.43 93.26 280.12 90.57 280.12 87.26C280.12 77.74 272.38 70 262.86 70H254.59C243.27 70 234.07 79.2 234.07 90.5C234.07 101.8 243.28 111 254.59 111Z" fill="white"/>
</svg>
