<svg width="16" height="19" viewBox="0 0 16 19" fill="none" xmlns="http://www.w3.org/2000/svg">
<path d="M12.7497 12.1482C12.3328 12.1481 11.9201 12.2316 11.536 12.3938C11.1519 12.5561 10.8043 12.7937 10.5138 13.0927L6.9122 10.7779C7.1955 10.0514 7.1955 9.24499 6.9122 8.51851L10.5138 6.20366C11.0547 6.75782 11.7822 7.09136 12.5551 7.13962C13.3281 7.18788 14.0914 6.94743 14.6971 6.46487C15.3028 5.98231 15.7078 5.29204 15.8335 4.52787C15.9592 3.76371 15.7966 2.98009 15.3774 2.32895C14.9581 1.67781 14.312 1.20554 13.5644 1.0037C12.8167 0.801858 12.0207 0.884826 11.3307 1.23652C10.6408 1.58821 10.106 2.18357 9.83002 2.90717C9.55406 3.63077 9.55662 4.43106 9.8372 5.15288L6.23564 7.46772C5.80194 7.02247 5.24531 6.71667 4.63692 6.5894C4.02852 6.46213 3.39599 6.51919 2.82019 6.75327C2.24438 6.98735 1.75147 7.38783 1.40445 7.90351C1.05743 8.41918 0.87207 9.02663 0.87207 9.64819C0.87207 10.2698 1.05743 10.8772 1.40445 11.3929C1.75147 11.9086 2.24438 12.309 2.82019 12.5431C3.39599 12.7772 4.02852 12.8343 4.63692 12.707C5.24531 12.5797 5.80194 12.2739 6.23564 11.8287L9.8372 14.1435C9.59593 14.7658 9.56022 15.449 9.73532 16.093C9.91042 16.7371 10.2871 17.3081 10.8102 17.7226C11.3334 18.1371 11.9755 18.3732 12.6425 18.3963C13.3095 18.4195 13.9664 18.2284 14.517 17.8512C15.0676 17.474 15.483 16.9304 15.7023 16.3001C15.9216 15.6697 15.9334 14.9857 15.7358 14.3482C15.5383 13.7107 15.1418 13.1531 14.6044 12.7573C14.0671 12.3614 13.4171 12.1479 12.7497 12.1482ZM12.7497 2.14819C13.1205 2.14819 13.4831 2.25816 13.7914 2.46419C14.0997 2.67022 14.3401 2.96305 14.482 3.30566C14.6239 3.64827 14.661 4.02527 14.5887 4.38899C14.5163 4.7527 14.3377 5.08679 14.0755 5.34902C13.8133 5.61124 13.4792 5.78982 13.1155 5.86217C12.7518 5.93451 12.3748 5.89738 12.0322 5.75547C11.6896 5.61355 11.3967 5.37323 11.1907 5.06489C10.9847 4.75655 10.8747 4.39403 10.8747 4.02319C10.8747 3.52591 11.0722 3.049 11.4239 2.69737C11.7755 2.34574 12.2524 2.14819 12.7497 2.14819ZM3.9997 11.5232C3.62886 11.5232 3.26635 11.4132 2.95801 11.2072C2.64966 11.0012 2.40934 10.7083 2.26743 10.3657C2.12551 10.0231 2.08838 9.64611 2.16073 9.2824C2.23307 8.91868 2.41165 8.58459 2.67387 8.32237C2.9361 8.06014 3.27019 7.88157 3.63391 7.80922C3.99762 7.73687 4.37462 7.774 4.71723 7.91592C5.05984 8.05783 5.35268 8.29816 5.5587 8.6065C5.76473 8.91484 5.8747 9.27735 5.8747 9.64819C5.8747 10.1455 5.67716 10.6224 5.32552 10.974C4.97389 11.3256 4.49698 11.5232 3.9997 11.5232ZM12.7497 17.1482C12.3789 17.1482 12.0163 17.0382 11.708 16.8322C11.3997 16.6262 11.1593 16.3333 11.0174 15.9907C10.8755 15.6481 10.8384 15.2711 10.9107 14.9074C10.9831 14.5437 11.1617 14.2096 11.4239 13.9474C11.6861 13.6851 12.0202 13.5066 12.3839 13.4342C12.7476 13.3619 13.1246 13.399 13.4672 13.5409C13.8098 13.6828 14.1027 13.9232 14.3087 14.2315C14.5147 14.5398 14.6247 14.9024 14.6247 15.2732C14.6247 15.7705 14.4272 16.2474 14.0755 16.599C13.7239 16.9506 13.247 17.1482 12.7497 17.1482Z" fill="#7BF080"/>
</svg>
