<svg width="16" height="18" viewBox="0 0 16 18" fill="none" xmlns="http://www.w3.org/2000/svg">
<path d="M12.7499 11.6407C12.333 11.6406 11.9203 11.7241 11.5362 11.8863C11.1522 12.0486 10.8046 12.2862 10.514 12.5852L6.91244 10.2704C7.19575 9.54389 7.19575 8.73748 6.91244 8.011L10.514 5.69616C11.055 6.25031 11.7825 6.58385 12.5554 6.63211C13.3283 6.68038 14.0916 6.43992 14.6973 5.95736C15.3031 5.47481 15.708 4.78453 15.8337 4.02036C15.9594 3.2562 15.7969 2.47258 15.3776 1.82144C14.9584 1.17031 14.3123 0.698035 13.5646 0.496193C12.8169 0.294351 12.021 0.377319 11.331 0.72901C10.641 1.0807 10.1062 1.67606 9.83026 2.39966C9.55431 3.12326 9.55687 3.92355 9.83744 4.64537L6.23588 6.96022C5.80218 6.51496 5.24556 6.20916 4.63716 6.08189C4.02876 5.95463 3.39624 6.01168 2.82043 6.24576C2.24463 6.47985 1.75171 6.88032 1.40469 7.396C1.05767 7.91167 0.872314 8.51912 0.872314 9.14069C0.872314 9.76225 1.05767 10.3697 1.40469 10.8854C1.75171 11.401 2.24463 11.8015 2.82043 12.0356C3.39624 12.2697 4.02876 12.3267 4.63716 12.1995C5.24556 12.0722 5.80218 11.7664 6.23588 11.3212L9.83744 13.636C9.59617 14.2583 9.56047 14.9415 9.73556 15.5855C9.91066 16.2296 10.2874 16.8006 10.8105 17.2151C11.3336 17.6296 11.9757 17.8657 12.6427 17.8888C13.3098 17.9119 13.9667 17.7209 14.5173 17.3437C15.0679 16.9665 15.4833 16.4229 15.7026 15.7926C15.9219 15.1622 15.9336 14.4782 15.7361 13.8407C15.5385 13.2031 15.142 12.6456 14.6047 12.2498C14.0673 11.8539 13.4174 11.6404 12.7499 11.6407ZM12.7499 1.64069C13.1208 1.64069 13.4833 1.75065 13.7916 1.95668C14.1 2.16271 14.3403 2.45554 14.4822 2.79815C14.6241 3.14077 14.6613 3.51777 14.5889 3.88148C14.5166 4.24519 14.338 4.57929 14.0758 4.84151C13.8135 5.10373 13.4795 5.28231 13.1157 5.35466C12.752 5.42701 12.375 5.38987 12.0324 5.24796C11.6898 5.10605 11.397 4.86572 11.1909 4.55738C10.9849 4.24904 10.8749 3.88653 10.8749 3.51569C10.8749 3.0184 11.0725 2.54149 11.4241 2.18986C11.7757 1.83823 12.2527 1.64069 12.7499 1.64069ZM3.99994 11.0157C3.6291 11.0157 3.26659 10.9057 2.95825 10.6997C2.64991 10.4937 2.40958 10.2008 2.26767 9.85822C2.12576 9.51561 2.08862 9.13861 2.16097 8.77489C2.23332 8.41118 2.4119 8.07708 2.67412 7.81486C2.93634 7.55264 3.27043 7.37406 3.63415 7.30171C3.99786 7.22937 4.37486 7.2665 4.71747 7.40841C5.06009 7.55033 5.35292 7.79065 5.55895 8.09899C5.76498 8.40733 5.87494 8.76985 5.87494 9.14069C5.87494 9.63797 5.6774 10.1149 5.32577 10.4665C4.97414 10.8181 4.49722 11.0157 3.99994 11.0157ZM12.7499 16.6407C12.3791 16.6407 12.0166 16.5307 11.7083 16.3247C11.3999 16.1187 11.1596 15.8258 11.0177 15.4832C10.8758 15.1406 10.8386 14.7636 10.911 14.3999C10.9833 14.0362 11.1619 13.7021 11.4241 13.4399C11.6863 13.1776 12.0204 12.9991 12.3841 12.9267C12.7479 12.8544 13.1249 12.8915 13.4675 13.0334C13.8101 13.1753 14.1029 13.4156 14.309 13.724C14.515 14.0323 14.6249 14.3948 14.6249 14.7657C14.6249 15.263 14.4274 15.7399 14.0758 16.0915C13.7241 16.4431 13.2472 16.6407 12.7499 16.6407Z" fill="white" fill-opacity="0.7"/>
</svg>
