<svg width="24" height="25" viewBox="0 0 24 25" fill="none" xmlns="http://www.w3.org/2000/svg">
<path d="M11.25 20.3906C11.25 20.5895 11.171 20.7803 11.0303 20.921C10.8897 21.0616 10.6989 21.1406 10.5 21.1406H4.5C4.30109 21.1406 4.11032 21.0616 3.96967 20.921C3.82902 20.7803 3.75 20.5895 3.75 20.3906V3.89062C3.75 3.69171 3.82902 3.50095 3.96967 3.3603C4.11032 3.21964 4.30109 3.14062 4.5 3.14062H10.5C10.6989 3.14062 10.8897 3.21964 11.0303 3.3603C11.171 3.50095 11.25 3.69171 11.25 3.89062C11.25 4.08954 11.171 4.2803 11.0303 4.42095C10.8897 4.56161 10.6989 4.64062 10.5 4.64062H5.25V19.6406H10.5C10.6989 19.6406 10.8897 19.7196 11.0303 19.8603C11.171 20.0009 11.25 20.1917 11.25 20.3906ZM21.5306 11.61L17.7806 7.86C17.6399 7.71927 17.449 7.64021 17.25 7.64021C17.051 7.64021 16.8601 7.71927 16.7194 7.86C16.5786 8.00073 16.4996 8.1916 16.4996 8.39062C16.4996 8.58965 16.5786 8.78052 16.7194 8.92125L19.1897 11.3906H10.5C10.3011 11.3906 10.1103 11.4696 9.96967 11.6103C9.82902 11.7509 9.75 11.9417 9.75 12.1406C9.75 12.3395 9.82902 12.5303 9.96967 12.671C10.1103 12.8116 10.3011 12.8906 10.5 12.8906H19.1897L16.7194 15.36C16.5786 15.5007 16.4996 15.6916 16.4996 15.8906C16.4996 16.0896 16.5786 16.2805 16.7194 16.4213C16.8601 16.562 17.051 16.641 17.25 16.641C17.449 16.641 17.6399 16.562 17.7806 16.4213L21.5306 12.6713C21.6004 12.6016 21.6557 12.5189 21.6934 12.4278C21.7312 12.3368 21.7506 12.2392 21.7506 12.1406C21.7506 12.0421 21.7312 11.9445 21.6934 11.8534C21.6557 11.7624 21.6004 11.6797 21.5306 11.61Z" fill="white" fill-opacity="0.7"/>
</svg>
