<svg width="20" height="22" viewBox="0 0 20 22" fill="none" xmlns="http://www.w3.org/2000/svg">
<path d="M13.5985 10.6369L15.3977 13.7524H11.7992L10 16.8687L8.20075 13.7524H4.60225L6.4015 10.6369L4.60225 7.52145H8.20075L10 4.40594L11.7992 7.52145H15.3977L13.5985 10.6369Z" fill="#FFD731"/>
<path d="M10 0.137695V4.40595L8.20075 7.52145H4.60225L0.910751 5.3877C0.980501 5.2707 1.0975 5.18519 1.2535 5.18519H6.85375L9.64975 0.340195C9.72775 0.199945 9.85975 0.137695 10 0.137695Z" fill="#F8972C"/>
<path d="M19.0892 5.3877L15.397 7.52219H11.7985L10 4.40595V0.137695C10.1402 0.137695 10.2722 0.199945 10.3502 0.340195L13.1462 5.18519H18.7465C18.9025 5.18519 19.0195 5.2707 19.0892 5.3877Z" fill="#FFC933"/>
<path d="M19.0892 15.4819C19.1672 15.6222 19.159 15.7699 19.0892 15.8869L15.397 13.7524L13.5977 10.6369L15.397 7.52145L19.0892 5.38695C19.159 5.50395 19.1672 5.6517 19.0892 5.79195L16.2932 10.6369L19.0892 15.4819Z" fill="#F8972C"/>
<path d="M19.0892 15.8869C19.0195 16.0039 18.9025 16.0894 18.7465 16.0894H13.1462L10.3502 20.9344C10.2722 21.0747 10.1402 21.1369 10 21.1369V16.8687L11.7993 13.7532H15.3978L19.0892 15.8869Z" fill="#FFC933"/>
<path d="M10 16.8687V21.1369C9.85975 21.1369 9.72775 21.0747 9.64975 20.9344L6.85375 16.0894H1.25275C1.09675 16.0894 0.979754 16.0039 0.910004 15.8869L4.60225 13.7524H8.20075L10 16.8687Z" fill="#F8972C"/>
<path d="M6.4015 10.6369L4.60225 13.7524L0.910003 15.8869C0.840253 15.7699 0.832003 15.6222 0.910003 15.4819L3.706 10.6369L0.910003 5.79195C0.832003 5.6517 0.840253 5.50395 0.910003 5.38695L4.60225 7.52145L6.4015 10.6369Z" fill="#FFC933"/>
<path d="M9.7105 7.68045C9.5575 7.5942 9.36325 7.64445 9.27475 7.7967L9.03925 8.20545C8.902 8.44245 8.64775 8.59019 8.37325 8.59019H7.77325C7.59775 8.59019 7.4545 8.73269 7.4545 8.90895C7.4545 9.0852 7.597 9.2277 7.77325 9.2277H8.37325C8.8735 9.2277 9.34075 8.95919 9.59125 8.52494L9.82675 8.11619C9.91525 7.96319 9.86275 7.7682 9.7105 7.68045Z" fill="#FFE576"/>
</svg>
