<svg width="24" height="24" viewBox="0 0 24 24" fill="none" xmlns="http://www.w3.org/2000/svg">
<path fill-rule="evenodd" clip-rule="evenodd" d="M18.9283 14.39C19.2348 14.1114 19.2574 13.6371 18.9788 13.3306L13.9788 7.83058C13.7011 7.52517 13.2289 7.5015 12.9221 7.77761L8.42383 11.8261L3.92556 7.77761C3.61768 7.50052 3.14346 7.52549 2.86636 7.83337C2.58927 8.14125 2.61423 8.61546 2.92211 8.89255L7.92211 13.3926C8.20734 13.6493 8.64033 13.6493 8.92556 13.3926L13.3709 9.39179L17.8689 14.3396C18.1475 14.6461 18.6218 14.6687 18.9283 14.39Z" fill="#9A9B9E"/>
<path fill-rule="evenodd" clip-rule="evenodd" d="M12 10.6256L8.92556 13.3926C8.64033 13.6493 8.20734 13.6493 7.92211 13.3926L2.92211 8.89256C2.61423 8.61546 2.58927 8.14125 2.86636 7.83336C3.14346 7.52548 3.61768 7.50052 3.92556 7.77762L8.42383 11.8261L12 8.60751V10.6256Z" fill="#9A9B9E"/>
<path fill-rule="evenodd" clip-rule="evenodd" d="M14.302 13.4676C14.2265 13.8749 14.4954 14.2663 14.9026 14.3418L18.3789 14.9867C18.7861 15.0623 19.1775 14.7934 19.2531 14.3861L19.898 10.9099C19.9735 10.5026 19.7046 10.1112 19.2974 10.0357C18.8901 9.96009 18.4987 10.229 18.4232 10.6363L17.9151 13.3751L15.1763 12.867C14.769 12.7914 14.3776 13.0603 14.302 13.4676Z" fill="#9A9B9E"/>
</svg>
