<svg width="10" height="15" viewBox="0 0 10 15" fill="none" xmlns="http://www.w3.org/2000/svg">
<path d="M10 4.64063C10 6.86797 8.08828 8.71172 5.625 8.98125V9.64063C5.625 9.80639 5.55915 9.96536 5.44194 10.0826C5.32473 10.1998 5.16576 10.2656 5 10.2656C4.83424 10.2656 4.67527 10.1998 4.55806 10.0826C4.44085 9.96536 4.375 9.80639 4.375 9.64063V8.39063C4.375 8.22487 4.44085 8.06589 4.55806 7.94868C4.67527 7.83147 4.83424 7.76563 5 7.76563C7.06797 7.76563 8.75 6.36406 8.75 4.64063C8.75 2.91719 7.06797 1.51563 5 1.51563C2.93203 1.51563 1.25 2.91719 1.25 4.64063C1.25 4.80639 1.18415 4.96536 1.06694 5.08257C0.949731 5.19978 0.79076 5.26563 0.625 5.26563C0.45924 5.26563 0.300269 5.19978 0.183058 5.08257C0.0658481 4.96536 0 4.80639 0 4.64063C0 2.22813 2.24297 0.265625 5 0.265625C7.75703 0.265625 10 2.22813 10 4.64063ZM5 12.1406C4.75277 12.1406 4.5111 12.2139 4.30554 12.3513C4.09998 12.4886 3.93976 12.6839 3.84515 12.9123C3.75054 13.1407 3.72579 13.392 3.77402 13.6345C3.82225 13.877 3.9413 14.0997 4.11612 14.2745C4.29093 14.4493 4.51366 14.5684 4.75614 14.6166C4.99861 14.6648 5.24995 14.6401 5.47835 14.5455C5.70676 14.4509 5.90199 14.2907 6.03934 14.0851C6.17669 13.8795 6.25 13.6379 6.25 13.3906C6.25 13.0591 6.1183 12.7412 5.88388 12.5067C5.64946 12.2723 5.33152 12.1406 5 12.1406Z" fill="white" fill-opacity="0.7"/>
</svg>
