<svg width="32" height="32" viewBox="0 0 32 32" fill="none" xmlns="http://www.w3.org/2000/svg">
<g clip-path="url(#clip0_1483_3870)">
<path d="M32 16C32 7.16344 24.8366 0 16 0C7.16344 0 0 7.16344 0 16C0 24.8366 7.16344 32 16 32C24.8366 32 32 24.8366 32 16Z" fill="#419FD9"/>
<path d="M32 16C32 7.16344 24.8366 0 16 0C7.16344 0 0 7.16344 0 16C0 24.8366 7.16344 32 16 32C24.8366 32 32 24.8366 32 16Z" fill="url(#paint0_linear_1483_3870)"/>
<path d="M7.1916 15.6473C11.8445 13.5775 14.9471 12.213 16.4995 11.5537C20.9319 9.67135 21.853 9.34435 22.4533 9.33348C22.5853 9.33121 22.8805 9.36461 23.0718 9.52301C23.2333 9.65681 23.2777 9.83755 23.2989 9.96435C23.3202 10.0912 23.3467 10.3801 23.3256 10.6059C23.0854 13.1827 22.0461 19.4359 21.5173 22.322C21.2936 23.5432 20.8531 23.9527 20.4266 23.9927C19.4997 24.0798 18.7959 23.3673 17.8982 22.7665C16.4934 21.8263 15.6999 21.241 14.3363 20.3236C12.7605 19.2633 13.782 18.6806 14.6801 17.7282C14.9151 17.479 18.9989 13.6863 19.0779 13.3423C19.0878 13.2993 19.097 13.1389 19.0037 13.0542C18.9103 12.9695 18.7726 12.9985 18.6732 13.0215C18.5323 13.0541 16.2882 14.5686 11.9409 17.5649C11.3039 18.0115 10.7269 18.229 10.21 18.2176C9.64013 18.2051 8.54393 17.8887 7.729 17.6182C6.72947 17.2864 5.93503 17.1111 6.0042 16.5477C6.04023 16.2542 6.43602 15.9541 7.1916 15.6473Z" fill="white"/>
</g>
<defs>
<linearGradient id="paint0_linear_1483_3870" x1="16" y1="0" x2="16" y2="31.7627" gradientUnits="userSpaceOnUse">
<stop stop-color="#2AABEE"/>
<stop offset="1" stop-color="#229ED9"/>
</linearGradient>
<clipPath id="clip0_1483_3870">
<rect width="32" height="32" fill="white"/>
</clipPath>
</defs>
</svg>
