<svg width="30" height="28" viewBox="0 0 30 28" fill="none" xmlns="http://www.w3.org/2000/svg">
<path d="M27.2498 11.3427C26.8167 11.091 26.4276 10.7703 26.0978 10.3934C26.1311 9.86859 26.2561 9.3537 26.4671 8.87204C26.8551 7.77737 27.2938 6.53737 26.5898 5.57337C25.8858 4.60937 24.5564 4.64004 23.3898 4.66671C22.8742 4.71975 22.3535 4.68458 21.8498 4.56271C21.5814 4.12605 21.3897 3.64669 21.2831 3.14537C20.9524 2.01871 20.5751 0.745373 19.4164 0.36404C18.2991 0.0040395 17.2644 0.796039 16.3498 1.49204C15.9551 1.85246 15.4978 2.13761 15.0004 2.33337C14.4979 2.1392 14.0355 1.85398 13.6364 1.49204C12.7244 0.80004 11.6938 3.95775e-05 10.5711 0.365373C9.41509 0.741373 9.03775 2.01871 8.70442 3.14537C8.59793 3.64506 8.40817 4.12328 8.14309 4.56004C7.63844 4.68158 7.11699 4.71764 6.60042 4.66671C5.42975 4.63471 4.11109 4.60004 3.40042 5.57337C2.68975 6.54671 3.13375 7.77737 3.52309 8.87071C3.73701 9.35165 3.86387 9.86675 3.89775 10.392C3.56853 10.7695 3.17985 11.0906 2.74709 11.3427C1.77109 12.0094 0.663086 12.768 0.663086 14C0.663086 15.232 1.77109 15.988 2.74709 16.6574C3.17975 16.9091 3.56842 17.2297 3.89775 17.6067C3.86743 18.1318 3.74418 18.6473 3.53375 19.1294C3.14709 20.2227 2.70975 21.4627 3.41242 22.4267C4.11509 23.3907 5.44042 23.36 6.61242 23.3334C7.12838 23.2803 7.64961 23.3155 8.15375 23.4374C8.42093 23.8745 8.61208 24.3537 8.71909 24.8547C9.04975 25.9814 9.42709 27.2547 10.5858 27.636C10.7715 27.6956 10.9653 27.7262 11.1604 27.7267C12.098 27.5922 12.9695 27.1658 13.6511 26.508C14.0458 26.1476 14.5031 25.8625 15.0004 25.6667C15.503 25.8609 15.9654 26.1461 16.3644 26.508C17.2778 27.2054 18.3124 28.0014 19.4311 27.6347C20.5871 27.2587 20.9644 25.9814 21.2978 24.856C21.4046 24.3554 21.5958 23.8766 21.8631 23.44C22.3658 23.3177 22.8856 23.2816 23.4004 23.3334C24.5711 23.3614 25.8898 23.4 26.6004 22.4267C27.3111 21.4534 26.8671 20.2227 26.4778 19.128C26.2653 18.6475 26.1385 18.1336 26.1031 17.6094C26.4325 17.2316 26.8217 16.9104 27.2551 16.6587C28.2311 15.992 29.3391 15.232 29.3391 14C29.3391 12.768 28.2271 12.0107 27.2498 11.3427Z" fill="#16B364"/>
<path d="M13.6671 17.6668C13.5358 17.667 13.4057 17.6412 13.2844 17.5909C13.1631 17.5405 13.053 17.4666 12.9604 17.3734L10.2938 14.7068C10.1171 14.5172 10.021 14.2665 10.0255 14.0074C10.0301 13.7483 10.1351 13.5011 10.3183 13.3179C10.5015 13.1347 10.7487 13.0298 11.0078 13.0252C11.2668 13.0206 11.5175 13.1168 11.7071 13.2934L13.7604 15.3468L18.4004 11.8668C18.6126 11.7076 18.8793 11.6393 19.1419 11.6768C19.4044 11.7143 19.6413 11.8546 19.8004 12.0668C19.9596 12.2789 20.0279 12.5456 19.9904 12.8082C19.9529 13.0707 19.8126 13.3076 19.6004 13.4668L14.2671 17.4668C14.094 17.5965 13.8835 17.6667 13.6671 17.6668Z" fill="white"/>
</svg>
