<svg width="18" height="17" viewBox="0 0 18 17" fill="none" xmlns="http://www.w3.org/2000/svg">
<path d="M9 0.523193C7.39303 0.523193 5.82214 0.999716 4.486 1.8925C3.14985 2.78529 2.10844 4.05424 1.49348 5.53889C0.87852 7.02354 0.717618 8.65721 1.03112 10.2333C1.34463 11.8094 2.11846 13.2571 3.25476 14.3934C4.39106 15.5297 5.8388 16.3036 7.4149 16.6171C8.99099 16.9306 10.6247 16.7697 12.1093 16.1547C13.594 15.5398 14.8629 14.4984 15.7557 13.1622C16.6485 11.8261 17.125 10.2552 17.125 8.64819C17.1227 6.49401 16.266 4.4287 14.7427 2.90546C13.2195 1.38222 11.1542 0.525468 9 0.523193ZM4.7875 14.0779C5.23964 13.3708 5.86251 12.7888 6.59869 12.3857C7.33488 11.9826 8.16069 11.7714 9 11.7714C9.83932 11.7714 10.6651 11.9826 11.4013 12.3857C12.1375 12.7888 12.7604 13.3708 13.2125 14.0779C12.0081 15.0146 10.5258 15.5231 9 15.5231C7.4742 15.5231 5.99193 15.0146 4.7875 14.0779ZM6.5 8.02319C6.5 7.52874 6.64663 7.04539 6.92133 6.63427C7.19603 6.22315 7.58648 5.90271 8.04329 5.71349C8.50011 5.52428 9.00278 5.47477 9.48773 5.57123C9.97268 5.66769 10.4181 5.9058 10.7678 6.25543C11.1174 6.60506 11.3555 7.05052 11.452 7.53547C11.5484 8.02042 11.4989 8.52309 11.3097 8.9799C11.1205 9.43672 10.8001 9.82716 10.3889 10.1019C9.97781 10.3766 9.49446 10.5232 9 10.5232C8.33696 10.5232 7.70108 10.2598 7.23224 9.79096C6.7634 9.32212 6.5 8.68623 6.5 8.02319ZM14.1375 13.2115C13.4404 12.2014 12.4603 11.4199 11.3203 10.9654C11.9327 10.4831 12.3795 9.82193 12.5987 9.07389C12.8179 8.32586 12.7985 7.52811 12.5433 6.79159C12.2881 6.05507 11.8097 5.41639 11.1746 4.96436C10.5396 4.51233 9.77949 4.26943 9 4.26943C8.22052 4.26943 7.4604 4.51233 6.82536 4.96436C6.19033 5.41639 5.71193 6.05507 5.45671 6.79159C5.20149 7.52811 5.18212 8.32586 5.40131 9.07389C5.62049 9.82193 6.06734 10.4831 6.67969 10.9654C5.5397 11.4199 4.55956 12.2014 3.8625 13.2115C2.9817 12.221 2.406 10.997 2.20473 9.68687C2.00346 8.37675 2.1852 7.03639 2.72806 5.82718C3.27093 4.61796 4.15178 3.59146 5.26454 2.87127C6.3773 2.15108 7.67452 1.76792 9 1.76792C10.3255 1.76792 11.6227 2.15108 12.7355 2.87127C13.8482 3.59146 14.7291 4.61796 15.2719 5.82718C15.8148 7.03639 15.9966 8.37675 15.7953 9.68687C15.594 10.997 15.0183 12.221 14.1375 13.2115Z" fill="white" fill-opacity="0.7"/>
</svg>
