<svg width="32" height="32" viewBox="0 0 32 32" fill="none" xmlns="http://www.w3.org/2000/svg">
<path d="M28.2498 13.3427C27.8167 13.091 27.4276 12.7703 27.0978 12.3934C27.1311 11.8686 27.2561 11.3537 27.4671 10.872C27.8551 9.77737 28.2938 8.53737 27.5898 7.57337C26.8858 6.60937 25.5564 6.64004 24.3898 6.66671C23.8742 6.71975 23.3535 6.68458 22.8498 6.56271C22.5814 6.12605 22.3897 5.64669 22.2831 5.14537C21.9524 4.01871 21.5751 2.74537 20.4164 2.36404C19.2991 2.00404 18.2644 2.79604 17.3498 3.49204C16.9551 3.85246 16.4978 4.13761 16.0004 4.33337C15.4979 4.1392 15.0355 3.85398 14.6364 3.49204C13.7244 2.80004 12.6938 2.00004 11.5711 2.36537C10.4151 2.74137 10.0378 4.01871 9.70442 5.14537C9.59793 5.64506 9.40817 6.12328 9.14309 6.56004C8.63844 6.68158 8.11699 6.71764 7.60042 6.66671C6.42975 6.63471 5.11109 6.60004 4.40042 7.57337C3.68975 8.54671 4.13375 9.77737 4.52309 10.8707C4.73701 11.3517 4.86387 11.8668 4.89775 12.392C4.56853 12.7695 4.17985 13.0906 3.74709 13.3427C2.77109 14.0094 1.66309 14.768 1.66309 16C1.66309 17.232 2.77109 17.988 3.74709 18.6574C4.17975 18.9091 4.56842 19.2297 4.89775 19.6067C4.86743 20.1318 4.74418 20.6473 4.53375 21.1294C4.14709 22.2227 3.70975 23.4627 4.41242 24.4267C5.11509 25.3907 6.44042 25.36 7.61242 25.3334C8.12838 25.2803 8.64961 25.3155 9.15375 25.4374C9.42093 25.8745 9.61208 26.3537 9.71909 26.8547C10.0498 27.9814 10.4271 29.2547 11.5858 29.636C11.7715 29.6956 11.9653 29.7262 12.1604 29.7267C13.098 29.5922 13.9695 29.1658 14.6511 28.508C15.0458 28.1476 15.5031 27.8625 16.0004 27.6667C16.503 27.8609 16.9654 28.1461 17.3644 28.508C18.2778 29.2054 19.3124 30.0014 20.4311 29.6347C21.5871 29.2587 21.9644 27.9814 22.2978 26.856C22.4046 26.3554 22.5958 25.8766 22.8631 25.44C23.3658 25.3177 23.8856 25.2816 24.4004 25.3334C25.5711 25.3614 26.8898 25.4 27.6004 24.4267C28.3111 23.4534 27.8671 22.2227 27.4778 21.128C27.2653 20.6475 27.1385 20.1336 27.1031 19.6094C27.4325 19.2316 27.8217 18.9104 28.2551 18.6587C29.2311 17.992 30.3391 17.232 30.3391 16C30.3391 14.768 29.2271 14.0107 28.2498 13.3427Z" fill="#16B364"/>
<path d="M14.6671 19.6668C14.5358 19.667 14.4057 19.6412 14.2844 19.5909C14.1631 19.5405 14.053 19.4666 13.9604 19.3734L11.2938 16.7068C11.1171 16.5172 11.021 16.2665 11.0255 16.0074C11.0301 15.7483 11.1351 15.5011 11.3183 15.3179C11.5015 15.1347 11.7487 15.0298 12.0078 15.0252C12.2668 15.0206 12.5175 15.1168 12.7071 15.2934L14.7604 17.3468L19.4004 13.8668C19.6126 13.7076 19.8793 13.6393 20.1419 13.6768C20.4044 13.7143 20.6413 13.8546 20.8004 14.0668C20.9596 14.2789 21.0279 14.5456 20.9904 14.8082C20.9529 15.0707 20.8126 15.3076 20.6004 15.4668L15.2671 19.4668C15.094 19.5965 14.8835 19.6667 14.6671 19.6668Z" fill="white"/>
</svg>
